<?xml version="1.0" encoding="UTF-8"?><svg xmlns="http://www.w3.org/2000/svg" xmlns:xlink="http://www.w3.org/1999/xlink" contentScriptType="text/ecmascript" width="375pt" zoomAndPan="magnify" contentStyleType="text/css" viewBox="0 0 375 374.999991" height="374.999991pt" preserveAspectRatio="xMidYMid meet" version="1.2"><defs><clipPath xml:id="clip1" id="clip1"><path d="M 136 92.351562 L 236 92.351562 L 236 149 L 136 149 Z M 136 92.351562 "/></clipPath><clipPath xml:id="clip2" id="clip2"><path d="M 68.191406 120 L 306.691406 120 L 306.691406 282.851562 L 68.191406 282.851562 Z M 68.191406 120 "/></clipPath></defs><g xml:id="surface1" id="surface1"><rect x="0" width="375" y="0" height="374.999991" style="fill:rgb(100%,100%,100%);fill-opacity:1;stroke:none;"/><rect x="0" width="375" y="0" height="374.999991" style="fill:rgb(100%,100%,100%);fill-opacity:1;stroke:none;"/><rect x="0" width="375" y="0" height="374.999991" style="fill:rgb(23.919678%,81.17981%,82.749939%);fill-opacity:1;stroke:none;"/><g clip-rule="nonzero" clip-path="url(#clip1)"><path style=" stroke:none;fill-rule:nonzero;fill:rgb(0%,0%,0%);fill-opacity:1;" d="M 150.058594 104.421875 C 149.480469 104.421875 149.007812 104.894531 149.007812 105.472656 L 149.007812 135.867188 C 149.007812 136.449219 149.480469 136.921875 150.058594 136.921875 L 222.773438 136.921875 C 223.351562 136.921875 223.824219 136.449219 223.824219 135.867188 L 223.824219 105.472656 C 223.824219 104.894531 223.351562 104.421875 222.773438 104.421875 Z M 222.773438 148.957031 L 150.058594 148.957031 C 142.851562 148.957031 136.988281 143.085938 136.988281 135.867188 L 136.988281 105.472656 C 136.988281 98.253906 142.851562 92.382812 150.058594 92.382812 L 222.773438 92.382812 C 229.980469 92.382812 235.84375 98.253906 235.84375 105.472656 L 235.84375 135.867188 C 235.84375 143.085938 229.980469 148.957031 222.773438 148.957031 "/></g><g clip-rule="nonzero" clip-path="url(#clip2)"><path style=" stroke:none;fill-rule:nonzero;fill:rgb(0%,0%,0%);fill-opacity:1;" d="M 292.03125 120.972656 L 82.90625 120.972656 C 74.941406 120.972656 68.484375 127.4375 68.484375 135.414062 L 68.484375 268.425781 C 68.484375 276.40625 74.941406 282.871094 82.90625 282.871094 L 292.03125 282.871094 C 299.996094 282.871094 306.449219 276.40625 306.449219 268.425781 L 306.449219 135.414062 C 306.449219 127.4375 299.996094 120.972656 292.03125 120.972656 "/></g><path style=" stroke:none;fill-rule:nonzero;fill:rgb(23.919678%,81.17981%,82.749939%);fill-opacity:1;" d="M 82.90625 131.308594 C 80.644531 131.308594 78.804688 133.152344 78.804688 135.414062 L 78.804688 268.425781 C 78.804688 270.691406 80.644531 272.535156 82.90625 272.535156 L 292.03125 272.535156 C 294.292969 272.535156 296.132812 270.691406 296.132812 268.425781 L 296.132812 135.414062 C 296.132812 133.152344 294.292969 131.308594 292.03125 131.308594 Z M 292.03125 276.144531 L 82.90625 276.144531 C 78.65625 276.144531 75.199219 272.683594 75.199219 268.425781 L 75.199219 135.414062 C 75.199219 131.160156 78.65625 127.695312 82.90625 127.695312 L 292.03125 127.695312 C 296.28125 127.695312 299.738281 131.160156 299.738281 135.414062 L 299.738281 268.425781 C 299.738281 272.683594 296.28125 276.144531 292.03125 276.144531 "/><path style=" stroke:none;fill-rule:nonzero;fill:rgb(23.919678%,81.17981%,82.749939%);fill-opacity:1;" d="M 296.132812 188.050781 L 296.132812 268.425781 C 296.132812 270.691406 294.292969 272.535156 292.03125 272.535156 L 82.90625 272.535156 C 80.644531 272.535156 78.804688 270.691406 78.804688 268.425781 L 78.804688 188.597656 L 75.199219 184.894531 L 75.199219 268.425781 C 75.199219 272.683594 78.65625 276.144531 82.90625 276.144531 L 292.03125 276.144531 C 296.28125 276.144531 299.738281 272.683594 299.738281 268.425781 L 299.738281 184.371094 L 296.132812 188.050781 "/><path style=" stroke:none;fill-rule:nonzero;fill:rgb(23.919678%,81.17981%,82.749939%);fill-opacity:1;" d="M 284.464844 194.796875 L 89.875 194.796875 L 78.804688 183.425781 L 78.804688 188.597656 L 88.355469 198.410156 L 285.976562 198.410156 L 296.132812 188.050781 L 296.132812 182.898438 L 284.464844 194.796875 "/><path style=" stroke:none;fill-rule:nonzero;fill:rgb(23.919678%,81.17981%,82.749939%);fill-opacity:1;" d="M 181.457031 186.976562 C 179.578125 186.976562 178.050781 188.507812 178.050781 190.382812 L 178.050781 202.023438 C 178.050781 203.902344 179.578125 205.433594 181.457031 205.433594 L 193.074219 205.433594 C 194.953125 205.433594 196.480469 203.902344 196.480469 202.023438 L 196.480469 190.382812 C 196.480469 188.507812 194.953125 186.976562 193.074219 186.976562 Z M 193.074219 209.042969 L 181.457031 209.042969 C 177.59375 209.042969 174.449219 205.894531 174.449219 202.023438 L 174.449219 190.382812 C 174.449219 186.515625 177.59375 183.367188 181.457031 183.367188 L 193.074219 183.367188 C 196.941406 183.367188 200.085938 186.515625 200.085938 190.382812 L 200.085938 202.023438 C 200.085938 205.894531 196.941406 209.042969 193.074219 209.042969 "/></g></svg>