<?xml version="1.0" encoding="UTF-8"?><svg xmlns="http://www.w3.org/2000/svg" xmlns:xlink="http://www.w3.org/1999/xlink" contentScriptType="text/ecmascript" width="375pt" zoomAndPan="magnify" contentStyleType="text/css" viewBox="0 0 375 374.999991" height="374.999991pt" preserveAspectRatio="xMidYMid meet" version="1.2"><defs><clipPath xml:id="clip1" id="clip1"><path d="M 64.84375 218 L 185 218 L 185 310.617188 L 64.84375 310.617188 Z M 64.84375 218 "/></clipPath><clipPath xml:id="clip2" id="clip2"><path d="M 161 64.617188 L 310.09375 64.617188 L 310.09375 227 L 161 227 Z M 161 64.617188 "/></clipPath></defs><g xml:id="surface1" id="surface1"><rect x="0" width="375" y="0" height="374.999991" style="fill:rgb(100%,100%,100%);fill-opacity:1;stroke:none;"/><rect x="0" width="375" y="0" height="374.999991" style="fill:rgb(100%,100%,100%);fill-opacity:1;stroke:none;"/><rect x="0" width="375" y="0" height="374.999991" style="fill:rgb(23.919678%,81.17981%,82.749939%);fill-opacity:1;stroke:none;"/><path style=" stroke:none;fill-rule:nonzero;fill:rgb(0%,0%,0%);fill-opacity:1;" d="M 210.214844 233.519531 C 209.917969 231.632812 209.371094 229.695312 208.828125 227.90625 C 208.28125 226.117188 207.683594 224.429688 207.039062 222.789062 C 203.367188 213.003906 196.371094 203.613281 186.550781 196.410156 C 178.5625 190.550781 169.777344 186.921875 161.144531 185.433594 C 158.269531 184.835938 155.140625 184.488281 151.816406 184.488281 C 146.507812 184.488281 140.804688 185.332031 135 187.023438 C 130.433594 188.414062 126.214844 190.203125 122.445312 192.335938 C 122.246094 192.4375 122.046875 192.585938 121.851562 192.683594 C 121.601562 192.835938 121.402344 192.933594 121.15625 193.082031 C 120.90625 193.230469 120.660156 193.382812 120.410156 193.53125 C 120.164062 193.679688 119.867188 193.878906 119.617188 194.027344 C 118.625 194.671875 117.632812 195.367188 116.691406 196.015625 C 111.578125 199.589844 106.867188 204.507812 103.09375 210.222656 C 100.117188 214.691406 97.6875 219.957031 95.703125 226.316406 C 96 226.367188 96.347656 226.464844 96.644531 226.566406 C 96.992188 226.664062 97.339844 226.8125 97.6875 226.914062 C 98.183594 227.113281 98.679688 227.261719 99.125 227.507812 C 100.070312 228.15625 100.8125 228.851562 101.308594 229.945312 C 102.5 232.625 101.90625 235.457031 101.605469 238.238281 C 101.457031 239.929688 101.359375 241.617188 101.257812 243.304688 C 101.109375 246.734375 100.914062 250.160156 100.960938 253.589844 C 101.011719 256.71875 101.210938 259.800781 101.558594 262.878906 C 101.804688 264.519531 102.300781 266.007812 102.796875 267.550781 C 103.542969 269.386719 104.386719 271.125 105.527344 272.816406 C 106.121094 273.558594 106.71875 274.304688 107.410156 274.949219 C 107.609375 274.949219 107.757812 274.902344 107.957031 274.902344 C 109.296875 274.902344 110.636719 275.546875 111.429688 276.738281 C 111.976562 277.535156 112.472656 278.277344 113.066406 279.023438 C 114.011719 280.066406 114.953125 281.0625 115.996094 281.957031 C 117.039062 282.847656 118.128906 283.644531 119.269531 284.4375 C 121.007812 285.53125 122.792969 286.527344 124.578125 287.519531 C 126.214844 288.414062 127.953125 289.160156 129.640625 290.003906 C 131.328125 290.847656 133.015625 291.792969 134.75 292.585938 C 136.089844 293.230469 137.429688 293.878906 138.621094 294.722656 C 139.363281 295.21875 140.007812 295.765625 140.703125 296.363281 C 140.753906 296.410156 140.753906 296.410156 140.804688 296.460938 C 140.804688 296.460938 140.851562 296.460938 140.851562 296.460938 C 141.25 296.511719 141.597656 296.558594 141.996094 296.609375 C 142.191406 296.609375 142.339844 296.609375 142.539062 296.660156 C 142.589844 296.660156 142.640625 296.660156 142.6875 296.660156 C 142.738281 296.660156 142.738281 296.660156 142.789062 296.660156 C 142.835938 296.660156 142.886719 296.660156 142.9375 296.660156 C 142.988281 296.660156 143.035156 296.660156 143.085938 296.660156 C 144.128906 296.710938 145.167969 296.757812 146.210938 296.808594 C 146.261719 296.808594 146.261719 296.808594 146.3125 296.808594 C 146.359375 296.808594 146.410156 296.808594 146.507812 296.808594 C 147.105469 296.808594 147.75 296.808594 148.34375 296.808594 C 148.839844 296.808594 149.335938 296.808594 149.832031 296.808594 C 151.273438 296.757812 152.710938 296.710938 154.148438 296.660156 C 154.945312 296.609375 155.738281 296.609375 156.582031 296.558594 C 156.730469 296.558594 156.929688 296.558594 157.078125 296.511719 C 157.125 296.511719 157.175781 296.460938 157.226562 296.460938 C 157.472656 296.363281 157.722656 296.3125 157.96875 296.210938 C 158.765625 295.765625 159.558594 295.269531 160.351562 294.773438 C 161.292969 294.175781 162.238281 293.578125 163.179688 293.035156 C 163.625 292.785156 164.121094 292.535156 164.617188 292.289062 C 164.917969 291.542969 165.460938 290.847656 166.207031 290.402344 C 167.25 289.753906 168.242188 289.058594 169.332031 288.464844 C 170.375 287.867188 171.417969 287.320312 172.507812 286.773438 C 173.648438 286.179688 174.890625 285.484375 176.128906 285.183594 C 177.371094 284.886719 178.609375 284.6875 179.902344 284.539062 C 180.097656 284.539062 180.296875 284.488281 180.496094 284.488281 C 180.695312 284.488281 180.941406 284.4375 181.140625 284.4375 C 181.140625 284.4375 181.191406 284.4375 181.191406 284.4375 C 181.289062 284.4375 181.339844 284.4375 181.4375 284.4375 C 181.734375 284.4375 182.082031 284.488281 182.429688 284.488281 C 182.925781 284.539062 183.421875 284.589844 183.871094 284.738281 C 184.167969 284.835938 184.464844 284.9375 184.714844 285.035156 C 185.210938 284.636719 185.707031 284.242188 186.203125 283.84375 C 186.894531 283.296875 187.589844 282.75 188.234375 282.203125 C 188.78125 281.757812 189.328125 281.261719 189.875 280.761719 C 190.417969 280.265625 190.964844 279.820312 191.511719 279.324219 C 191.511719 279.324219 191.558594 279.273438 191.558594 279.222656 C 191.710938 279.074219 191.859375 278.976562 192.007812 278.824219 C 192.253906 278.527344 192.453125 278.28125 192.703125 277.980469 C 195.875 274.503906 198.855469 270.679688 201.632812 266.503906 C 203.617188 263.523438 205.203125 260.347656 206.34375 257.910156 C 207.734375 254.929688 208.925781 251.703125 209.769531 248.273438 C 210.5625 245.144531 210.960938 241.867188 210.960938 238.539062 C 210.613281 237.148438 210.464844 235.40625 210.214844 233.519531 Z M 170.027344 220.304688 C 169.480469 220.304688 168.984375 220.207031 168.488281 220.007812 C 168.4375 220.007812 168.390625 219.957031 168.339844 219.910156 C 168.140625 219.808594 167.992188 219.710938 167.84375 219.609375 C 167.792969 219.5625 167.746094 219.5625 167.695312 219.511719 C 167.496094 219.363281 167.347656 219.214844 167.148438 219.0625 C 167.148438 219.0625 167.148438 219.0625 167.101562 219.015625 C 166.902344 218.816406 166.753906 218.617188 166.601562 218.417969 C 166.601562 218.367188 166.554688 218.367188 166.554688 218.320312 C 166.453125 218.121094 166.355469 217.972656 166.257812 217.773438 C 166.257812 217.722656 166.207031 217.671875 166.207031 217.625 C 166.15625 217.425781 166.058594 217.226562 166.007812 217.027344 C 166.007812 216.976562 165.957031 216.929688 165.957031 216.878906 C 165.910156 216.628906 165.859375 216.382812 165.910156 216.082031 C 165.910156 214.941406 166.40625 213.949219 167.148438 213.203125 C 167.695312 212.65625 168.4375 212.257812 169.234375 212.109375 C 169.480469 212.058594 169.777344 212.011719 170.078125 212.011719 C 170.324219 212.011719 170.574219 212.058594 170.820312 212.109375 C 170.871094 212.109375 170.96875 212.160156 171.019531 212.160156 C 171.21875 212.207031 171.417969 212.257812 171.566406 212.359375 C 171.613281 212.359375 171.664062 212.40625 171.714844 212.40625 C 171.960938 212.507812 172.160156 212.605469 172.359375 212.753906 C 172.558594 212.902344 172.753906 213.054688 172.90625 213.203125 C 172.953125 213.25 173.003906 213.300781 173.003906 213.300781 C 173.152344 213.449219 173.253906 213.597656 173.402344 213.796875 C 173.402344 213.847656 173.449219 213.847656 173.449219 213.898438 C 173.898438 214.542969 174.144531 215.339844 174.144531 216.183594 C 174.144531 217.871094 173.054688 219.363281 171.566406 219.957031 C 171.167969 220.207031 170.621094 220.304688 170.027344 220.304688 Z M 170.027344 220.304688 "/><path style=" stroke:none;fill-rule:nonzero;fill:rgb(0%,0%,0%);fill-opacity:1;" d="M 157.574219 246.585938 C 157.523438 246.484375 157.472656 246.4375 157.425781 246.335938 C 157.472656 246.386719 157.523438 246.484375 157.574219 246.585938 Z M 157.574219 246.585938 "/><path style=" stroke:none;fill-rule:nonzero;fill:rgb(0%,0%,0%);fill-opacity:1;" d="M 185.65625 282.054688 C 185.65625 282.003906 185.65625 281.957031 185.605469 281.957031 C 185.605469 281.957031 185.605469 282.003906 185.65625 282.054688 Z M 185.65625 282.054688 "/><path style=" stroke:none;fill-rule:nonzero;fill:rgb(0%,0%,0%);fill-opacity:1;" d="M 186.449219 282.652344 C 186.351562 282.601562 186.25 282.550781 186.152344 282.5 C 186.25 282.550781 186.351562 282.601562 186.449219 282.652344 Z M 186.449219 282.652344 "/><path style=" stroke:none;fill-rule:nonzero;fill:rgb(0%,0%,0%);fill-opacity:1;" d="M 146.707031 283.546875 C 146.65625 283.445312 146.609375 283.347656 146.558594 283.296875 C 146.558594 283.394531 146.609375 283.445312 146.707031 283.546875 Z M 146.707031 283.546875 "/><g clip-rule="nonzero" clip-path="url(#clip1)"><path style=" stroke:none;fill-rule:nonzero;fill:rgb(0%,0%,0%);fill-opacity:1;" d="M 108.554688 218.417969 C 107.710938 218.46875 106.816406 218.617188 105.875 218.867188 C 104.386719 219.363281 102.945312 219.957031 101.558594 220.753906 C 99.671875 221.894531 97.886719 223.1875 96.25 224.527344 C 95.800781 225.917969 95.304688 227.410156 94.910156 228.949219 C 93.964844 232.226562 93.371094 235.65625 92.824219 238.636719 L 92.824219 238.734375 C 92.527344 240.375 92.328125 241.765625 92.128906 243.007812 L 90.941406 251.703125 L 90.789062 252.746094 L 90.640625 253.789062 L 90.542969 254.382812 L 90.445312 255.03125 L 90.34375 255.625 C 90.097656 257.714844 89.75 260.644531 89.253906 263.328125 C 88.757812 265.808594 88.113281 268.09375 87.464844 270.183594 C 87.464844 270.183594 87.515625 270.230469 87.515625 270.28125 C 87.515625 270.332031 87.515625 270.378906 87.515625 270.429688 C 87.070312 271.871094 86.472656 273.261719 85.78125 274.601562 C 85.035156 275.992188 84.242188 277.285156 83.300781 278.527344 C 82.503906 279.570312 81.660156 280.5625 80.769531 281.457031 C 79.824219 282.402344 78.882812 283.296875 77.839844 284.089844 C 76.800781 284.886719 75.707031 285.632812 74.566406 286.277344 C 73.425781 286.921875 72.234375 287.46875 70.996094 287.917969 C 69.753906 288.363281 68.464844 288.660156 67.171875 288.859375 C 67.125 288.859375 67.023438 288.859375 66.976562 288.910156 C 66.976562 288.910156 66.976562 288.910156 66.925781 288.910156 C 66.875 288.910156 66.875 288.910156 66.828125 288.910156 C 66.675781 288.960938 66.578125 289.007812 66.429688 289.058594 C 66.332031 289.109375 66.28125 289.109375 66.230469 289.160156 C 66.179688 289.160156 66.179688 289.207031 66.132812 289.207031 C 66.082031 289.207031 66.082031 289.257812 66.03125 289.257812 C 66.03125 289.257812 65.984375 289.257812 65.984375 289.308594 C 65.933594 289.355469 65.882812 289.355469 65.835938 289.40625 C 65.734375 289.507812 65.636719 289.605469 65.535156 289.703125 C 65.4375 289.804688 65.386719 289.902344 65.289062 290.003906 C 65.238281 290.101562 65.140625 290.203125 65.089844 290.300781 C 65.089844 290.300781 65.089844 290.300781 65.089844 290.351562 C 64.992188 290.550781 64.941406 290.75 64.890625 290.996094 C 64.890625 290.996094 64.890625 290.945312 64.890625 290.945312 C 64.84375 291.097656 64.84375 291.195312 64.84375 291.34375 C 64.84375 291.492188 64.84375 291.59375 64.84375 291.742188 C 64.84375 291.839844 64.890625 291.890625 64.890625 291.941406 C 64.941406 292.089844 64.992188 292.1875 64.992188 292.238281 C 65.039062 292.335938 65.089844 292.4375 65.140625 292.535156 C 65.289062 292.785156 65.488281 292.984375 65.636719 293.230469 L 65.984375 293.578125 L 66.28125 293.878906 L 66.527344 294.027344 L 66.777344 294.175781 C 70.796875 296.710938 75.011719 299.042969 79.378906 301.179688 C 81.265625 302.125 83.546875 303.21875 85.929688 304.160156 C 87.863281 304.957031 89.996094 305.699219 92.378906 306.496094 C 96.199219 307.636719 99.574219 308.484375 102.75 308.980469 C 104.285156 309.226562 105.921875 309.425781 107.511719 309.625 L 108.207031 309.726562 C 111.480469 310.222656 114.953125 310.46875 118.875 310.519531 L 119.371094 310.519531 C 125.570312 310.519531 132.21875 309.625 139.214844 307.789062 C 140.007812 307.589844 140.851562 307.339844 141.648438 307.140625 C 142.6875 306.894531 143.828125 306.546875 145.019531 306.246094 C 146.507812 305.75 148.148438 305.203125 149.734375 304.558594 C 151.125 304.011719 152.5625 303.464844 154 302.871094 C 159.0625 300.734375 164.121094 298.25 169.035156 295.46875 C 173.597656 292.882812 177.964844 290.101562 181.886719 287.269531 C 182.878906 286.527344 183.871094 285.78125 184.8125 285.085938 C 184.863281 284.984375 184.910156 284.835938 184.960938 284.738281 C 184.910156 284.6875 184.910156 284.6875 184.863281 284.636719 C 184.664062 284.488281 184.515625 284.390625 184.316406 284.242188 C 184.117188 284.140625 183.917969 284.042969 183.722656 283.941406 C 183.375 283.792969 183.027344 283.695312 182.628906 283.59375 C 182.332031 283.546875 182.035156 283.445312 181.6875 283.445312 C 180.199219 283.246094 178.660156 283.296875 177.171875 283.496094 C 176.328125 283.59375 175.484375 283.792969 174.640625 283.992188 C 172.257812 284.785156 169.878906 285.730469 167.597656 286.625 L 167.398438 286.675781 C 165.761719 287.320312 164.121094 287.964844 162.4375 288.5625 L 162.1875 288.660156 C 159.804688 289.507812 157.324219 290.402344 154.746094 290.945312 L 154 291.097656 C 153.109375 291.292969 152.164062 291.492188 151.222656 291.542969 C 150.527344 291.59375 149.832031 291.691406 149.140625 291.691406 C 148.742188 291.691406 148.34375 291.691406 147.996094 291.59375 C 146.359375 291.34375 143.332031 290.648438 141.496094 288.414062 C 140.058594 286.675781 139.265625 284.339844 139.316406 281.855469 C 139.363281 279.570312 140.007812 277.335938 141.449219 274.703125 C 142.492188 272.816406 143.632812 270.925781 144.972656 269.039062 L 146.113281 267.398438 L 148.394531 264.121094 C 149.039062 263.175781 149.734375 262.183594 150.378906 261.238281 L 151.074219 260.195312 L 151.867188 259.003906 C 152.613281 257.714844 153.207031 256.421875 153.605469 255.078125 C 153.753906 254.632812 153.851562 254.1875 153.953125 253.789062 C 153.953125 253.589844 154 253.390625 154 253.191406 C 154 252.597656 153.953125 251.949219 153.800781 251.355469 C 153.753906 251.105469 153.652344 250.859375 153.554688 250.609375 C 153.503906 250.460938 153.457031 250.359375 153.40625 250.261719 C 153.207031 249.964844 153.007812 249.664062 152.859375 249.417969 C 152.660156 249.21875 152.511719 249.019531 152.3125 248.820312 C 152.117188 248.621094 151.917969 248.472656 151.667969 248.273438 C 151.421875 248.125 151.222656 247.925781 150.972656 247.777344 C 150.824219 247.679688 150.628906 247.578125 150.429688 247.480469 C 150.230469 247.429688 150.03125 247.378906 149.882812 247.378906 C 149.585938 247.332031 149.1875 247.332031 148.890625 247.332031 C 148.492188 247.332031 148.148438 247.378906 147.800781 247.378906 C 147.105469 247.480469 146.410156 247.578125 145.765625 247.777344 C 145.070312 247.976562 144.425781 248.175781 143.679688 248.421875 C 142.988281 248.671875 142.242188 249.019531 141.597656 249.367188 C 138.222656 251.554688 135.195312 254.234375 132.21875 256.820312 L 131.625 257.363281 L 130.683594 258.210938 L 130.433594 258.457031 C 128.847656 259.800781 127.257812 261.238281 125.570312 262.480469 C 123.835938 263.722656 122.296875 264.667969 120.757812 265.363281 C 118.773438 266.257812 117.039062 266.65625 115.351562 266.65625 L 115.203125 266.65625 C 114.109375 266.65625 113.117188 266.503906 112.226562 266.15625 C 111.628906 265.960938 111.082031 265.710938 110.4375 265.3125 C 110.140625 265.164062 109.84375 264.964844 109.59375 264.71875 C 108.902344 264.070312 108.15625 263.328125 107.5625 262.433594 C 107.015625 261.585938 106.667969 260.742188 106.417969 259.75 C 105.425781 255.625 106.570312 251.402344 107.5625 248.570312 C 108.207031 246.585938 109.050781 244.648438 109.941406 242.761719 C 110.289062 242.015625 110.6875 241.320312 111.035156 240.574219 L 111.234375 240.226562 C 111.679688 239.332031 112.125 238.488281 112.570312 237.59375 C 112.769531 237.195312 112.96875 236.796875 113.167969 236.402344 L 113.414062 235.90625 C 113.910156 234.910156 114.457031 233.769531 114.953125 232.625 C 115.550781 231.234375 116.09375 229.695312 116.542969 227.855469 C 116.789062 226.8125 116.886719 225.917969 116.9375 225.023438 C 116.886719 224.527344 116.789062 224.03125 116.691406 223.484375 C 116.492188 222.839844 116.195312 222.195312 115.894531 221.546875 C 115.699219 221.25 115.5 221 115.25 220.753906 C 114.804688 220.40625 114.359375 220.058594 113.8125 219.710938 C 112.917969 219.261719 112.027344 218.914062 111.132812 218.667969 C 110.238281 218.519531 109.398438 218.46875 108.554688 218.417969 Z M 177.269531 283.445312 C 177.222656 283.445312 177.222656 283.445312 177.269531 283.445312 C 177.222656 283.445312 177.222656 283.445312 177.269531 283.445312 Z M 177.269531 283.445312 "/></g><g clip-rule="nonzero" clip-path="url(#clip2)"><path style=" stroke:none;fill-rule:nonzero;fill:rgb(0%,0%,0%);fill-opacity:1;" d="M 290.046875 64.71875 C 289.601562 64.71875 289.203125 64.71875 288.757812 64.71875 C 286.972656 64.765625 285.035156 65.015625 282.953125 65.414062 C 281.265625 65.761719 279.480469 66.207031 277.542969 66.804688 C 275.808594 67.351562 274.070312 67.996094 272.183594 68.742188 C 268.910156 70.082031 265.585938 71.722656 261.914062 73.808594 C 258.738281 75.644531 255.515625 77.683594 252.140625 80.066406 C 249.113281 82.203125 246.136719 84.488281 242.960938 87.070312 C 237.257812 91.742188 231.550781 97.105469 225.945312 103.019531 C 220.785156 108.433594 215.722656 114.34375 210.960938 120.605469 C 206.148438 126.863281 201.683594 133.371094 197.664062 140.027344 C 196.222656 142.414062 194.835938 144.796875 193.496094 147.179688 C 192.851562 148.324219 192.15625 149.464844 191.460938 150.660156 C 190.21875 152.546875 189.128906 154.382812 188.1875 156.171875 C 188.039062 156.472656 187.839844 156.820312 187.691406 157.117188 C 186.945312 158.457031 186.152344 159.847656 185.359375 161.238281 C 181.089844 168.789062 177.222656 176.042969 174.09375 182.152344 C 172.855469 184.4375 171.613281 186.824219 170.375 189.207031 C 168.390625 193.082031 166.503906 197.058594 164.421875 201.476562 L 164.023438 202.371094 L 163.875 202.621094 C 163.625 202.96875 163.378906 203.316406 163.128906 203.664062 C 162.832031 204.109375 162.585938 204.65625 162.335938 205.253906 C 162.136719 205.800781 161.941406 206.394531 161.789062 207.09375 C 161.542969 208.332031 161.492188 209.675781 161.640625 211.117188 C 161.789062 212.359375 162.089844 213.597656 162.585938 214.941406 C 163.03125 216.082031 163.625 217.226562 164.371094 218.417969 C 165.066406 219.460938 165.910156 220.503906 166.949219 221.5 C 167.792969 222.34375 168.785156 223.136719 169.828125 223.832031 C 171.21875 224.777344 172.707031 225.523438 174.34375 226.019531 C 175.882812 226.515625 177.519531 226.8125 179.105469 226.863281 L 179.355469 226.863281 C 180 226.863281 180.644531 226.8125 181.339844 226.714844 C 182.035156 226.613281 182.730469 226.464844 183.523438 226.167969 L 183.621094 226.167969 L 183.820312 226.070312 L 183.917969 226.019531 C 184.5625 225.769531 185.210938 225.472656 185.855469 225.074219 C 186.5 224.675781 187.144531 224.132812 187.738281 223.535156 C 191.957031 220.753906 196.222656 217.773438 200.839844 214.394531 C 205.351562 211.117188 209.917969 207.636719 214.78125 203.8125 C 223.761719 196.757812 232.691406 189.308594 242.117188 180.960938 C 247.277344 176.441406 252.390625 171.769531 257.449219 167.050781 L 258.144531 166.40625 L 258.34375 166.207031 L 258.886719 165.710938 L 259.234375 165.414062 L 259.632812 165.066406 L 260.128906 164.566406 L 260.277344 164.417969 L 260.328125 164.371094 C 260.574219 164.171875 260.773438 163.972656 260.972656 163.722656 L 261.269531 163.476562 C 262.261719 162.53125 263.207031 161.636719 264.148438 160.695312 L 264.246094 160.59375 L 264.941406 159.898438 C 265.636719 159.203125 266.378906 158.507812 267.074219 157.8125 L 267.621094 157.316406 L 268.117188 156.820312 L 269.109375 155.875 C 279.925781 145.542969 288.558594 135.457031 295.40625 125.023438 C 298.929688 119.710938 302.003906 113.945312 304.832031 107.441406 C 306.371094 103.863281 307.511719 100.832031 308.304688 97.949219 C 309.097656 95.070312 309.644531 91.691406 309.941406 87.617188 C 310.09375 85.878906 310.042969 84.140625 309.84375 82.351562 C 309.84375 82.304688 309.84375 82.253906 309.792969 82.203125 C 309.792969 82.203125 309.746094 82.054688 309.746094 82.054688 C 309.59375 81.257812 309.398438 80.515625 309.148438 79.820312 C 308.902344 78.972656 308.601562 78.230469 308.355469 77.535156 C 307.859375 76.390625 307.363281 75.347656 306.816406 74.453125 C 306.320312 73.609375 305.726562 72.714844 305.128906 71.921875 C 304.535156 71.125 303.890625 70.429688 303.292969 69.785156 C 302.648438 69.136719 301.953125 68.542969 301.261719 67.945312 C 300.664062 67.5 300.167969 67.152344 299.671875 66.851562 C 299.125 66.503906 298.53125 66.207031 297.984375 65.960938 L 297.984375 66.109375 C 297.984375 66.109375 297.886719 66.058594 297.886719 66.058594 L 297.6875 65.960938 C 297.6875 65.960938 297.589844 65.910156 297.589844 65.910156 L 297.488281 65.859375 L 297.191406 65.761719 C 297.140625 65.710938 297.042969 65.710938 296.992188 65.660156 C 296.597656 65.5625 296.148438 65.414062 295.703125 65.3125 C 295.503906 65.261719 295.304688 65.214844 295.109375 65.164062 C 294.613281 65.066406 294.164062 64.964844 293.667969 64.914062 C 292.578125 64.816406 291.386719 64.71875 290.046875 64.71875 Z M 290.046875 64.71875 "/></g><path style=" stroke:none;fill-rule:nonzero;fill:rgb(0%,0%,0%);fill-opacity:1;" d="M 240.53125 99.539062 C 238.644531 99.640625 236.859375 100.535156 235.617188 101.925781 C 234.230469 103.414062 233.734375 105.253906 233.734375 107.242188 C 233.734375 111.214844 237.652344 114.296875 241.425781 114.046875 C 243.308594 113.945312 245.09375 113.054688 246.335938 111.660156 C 247.726562 110.171875 248.222656 108.332031 248.222656 106.347656 C 248.222656 102.371094 244.25 99.292969 240.53125 99.539062 Z M 240.53125 99.539062 "/><path style=" stroke:none;fill-rule:nonzero;fill:rgb(0%,0%,0%);fill-opacity:1;" d="M 271.292969 93.183594 C 271.292969 90.300781 269.65625 87.320312 267.570312 85.433594 C 265.339844 83.394531 262.261719 82.304688 259.234375 82.5 C 256.308594 82.699219 253.480469 84.042969 251.496094 86.226562 C 249.363281 88.613281 248.570312 91.445312 248.570312 94.574219 C 248.570312 97.453125 250.207031 100.433594 252.289062 102.324219 C 254.523438 104.359375 257.597656 105.453125 260.625 105.253906 C 263.550781 105.054688 266.378906 103.714844 268.363281 101.527344 C 270.5 99.191406 271.292969 96.363281 271.292969 93.183594 Z M 271.292969 93.183594 "/></g></svg>