<?xml version="1.0" encoding="UTF-8"?><svg xmlns="http://www.w3.org/2000/svg" xmlns:xlink="http://www.w3.org/1999/xlink" contentScriptType="text/ecmascript" width="375pt" zoomAndPan="magnify" contentStyleType="text/css" viewBox="0 0 375 374.999991" height="374.999991pt" preserveAspectRatio="xMidYMid meet" version="1.2"><defs><clipPath xml:id="clip1" id="clip1"><path d="M 249 120 L 329.734375 120 L 329.734375 257 L 249 257 Z M 249 120 "/></clipPath><clipPath xml:id="clip2" id="clip2"><path d="M 140 70 L 245 70 L 245 305.757812 L 140 305.757812 Z M 140 70 "/></clipPath></defs><g xml:id="surface1" id="surface1"><rect x="0" width="375" y="0" height="374.999991" style="fill:rgb(100%,100%,100%);fill-opacity:1;stroke:none;"/><rect x="0" width="375" y="0" height="374.999991" style="fill:rgb(100%,100%,100%);fill-opacity:1;stroke:none;"/><rect x="0" width="375" y="0" height="374.999991" style="fill:rgb(23.919678%,81.17981%,82.749939%);fill-opacity:1;stroke:none;"/><path style=" stroke:none;fill-rule:nonzero;fill:rgb(13.729858%,12.159729%,12.548828%);fill-opacity:1;" d="M 116.78125 256.535156 C 114.582031 256.535156 112.378906 255.691406 110.699219 254.007812 L 45.269531 188.347656 L 110.699219 122.691406 C 114.058594 119.316406 119.507812 119.316406 122.867188 122.691406 C 126.226562 126.058594 126.226562 131.527344 122.867188 134.898438 L 69.605469 188.347656 L 122.867188 241.796875 C 126.226562 245.167969 126.226562 250.632812 122.867188 254.007812 C 121.1875 255.691406 118.984375 256.535156 116.78125 256.535156 "/><g clip-rule="nonzero" clip-path="url(#clip1)"><path style=" stroke:none;fill-rule:nonzero;fill:rgb(13.729858%,12.159729%,12.548828%);fill-opacity:1;" d="M 257.902344 256.535156 C 255.699219 256.535156 253.496094 255.691406 251.816406 254.007812 C 248.457031 250.632812 248.457031 245.167969 251.816406 241.796875 L 305.078125 188.347656 L 251.816406 134.898438 C 248.457031 131.527344 248.457031 126.058594 251.816406 122.691406 C 255.179688 119.316406 260.625 119.316406 263.988281 122.691406 L 329.414062 188.347656 L 263.988281 254.007812 C 262.304688 255.691406 260.105469 256.535156 257.902344 256.535156 "/></g><g clip-rule="nonzero" clip-path="url(#clip2)"><path style=" stroke:none;fill-rule:nonzero;fill:rgb(13.729858%,12.159729%,12.548828%);fill-opacity:1;" d="M 148.738281 306.042969 C 147.671875 306.042969 146.585938 305.84375 145.535156 305.417969 C 141.125 303.640625 138.988281 298.613281 140.757812 294.1875 L 228.125 76.070312 C 229.898438 71.644531 234.910156 69.5 239.320312 71.277344 C 243.730469 73.054688 245.867188 78.085938 244.09375 82.507812 L 156.726562 300.628906 C 155.375 304 152.148438 306.042969 148.738281 306.042969 "/></g></g></svg>