<?xml version="1.0" encoding="UTF-8"?><svg xmlns="http://www.w3.org/2000/svg" xmlns:xlink="http://www.w3.org/1999/xlink" contentScriptType="text/ecmascript" width="375pt" zoomAndPan="magnify" contentStyleType="text/css" viewBox="0 0 375 374.999991" height="374.999991pt" preserveAspectRatio="xMidYMid meet" version="1.2"><defs><clipPath xml:id="clip1" id="clip1"><path d="M 74.847656 94.140625 L 299.558594 94.140625 L 299.558594 280.890625 L 74.847656 280.890625 Z M 74.847656 94.140625 "/></clipPath></defs><g xml:id="surface1" id="surface1"><rect x="0" width="375" y="0" height="374.999991" style="fill:rgb(100%,100%,100%);fill-opacity:1;stroke:none;"/><rect x="0" width="375" y="0" height="374.999991" style="fill:rgb(100%,100%,100%);fill-opacity:1;stroke:none;"/><rect x="0" width="375" y="0" height="374.999991" style="fill:rgb(23.919678%,81.17981%,82.749939%);fill-opacity:1;stroke:none;"/><g clip-rule="nonzero" clip-path="url(#clip1)"><path style=" stroke:none;fill-rule:nonzero;fill:rgb(13.729858%,12.159729%,12.548828%);fill-opacity:1;" d="M 286.277344 225.683594 L 88.203125 225.683594 L 88.203125 108.125 L 286.277344 108.125 Z M 288.550781 94.171875 L 85.925781 94.171875 C 79.839844 94.171875 74.90625 99.121094 74.90625 105.226562 L 74.90625 228.578125 C 74.90625 234.683594 79.839844 239.636719 85.925781 239.636719 L 148.71875 239.636719 L 148.71875 272.160156 L 128.074219 272.160156 L 128.074219 280.964844 L 246.40625 280.964844 L 246.40625 272.160156 L 225.757812 272.160156 L 225.757812 239.636719 L 288.550781 239.636719 C 294.632812 239.636719 299.574219 234.683594 299.574219 228.578125 L 299.574219 105.226562 C 299.574219 99.121094 294.632812 94.171875 288.550781 94.171875 "/></g></g></svg>