<?xml version="1.0" encoding="UTF-8"?><svg xmlns="http://www.w3.org/2000/svg" xmlns:xlink="http://www.w3.org/1999/xlink" contentScriptType="text/ecmascript" width="375pt" zoomAndPan="magnify" contentStyleType="text/css" viewBox="0 0 375 374.999991" height="374.999991pt" preserveAspectRatio="xMidYMid meet" version="1.2"><defs><clipPath xml:id="clip1" id="clip1"><path d="M 96.195312 73 L 110 73 L 110 87 L 96.195312 87 Z M 96.195312 73 "/></clipPath><clipPath xml:id="clip2" id="clip2"><path d="M 96.195312 104 L 110 104 L 110 118 L 96.195312 118 Z M 96.195312 104 "/></clipPath><clipPath xml:id="clip3" id="clip3"><path d="M 96.195312 134 L 110 134 L 110 149 L 96.195312 149 Z M 96.195312 134 "/></clipPath><clipPath xml:id="clip4" id="clip4"><path d="M 96.195312 165 L 110 165 L 110 179 L 96.195312 179 Z M 96.195312 165 "/></clipPath><clipPath xml:id="clip5" id="clip5"><path d="M 96.195312 196 L 110 196 L 110 210 L 96.195312 210 Z M 96.195312 196 "/></clipPath><clipPath xml:id="clip6" id="clip6"><path d="M 96.195312 226 L 110 226 L 110 241 L 96.195312 241 Z M 96.195312 226 "/></clipPath><clipPath xml:id="clip7" id="clip7"><path d="M 96.195312 257 L 110 257 L 110 271 L 96.195312 271 Z M 96.195312 257 "/></clipPath><clipPath xml:id="clip8" id="clip8"><path d="M 96.195312 288 L 110 288 L 110 302 L 96.195312 302 Z M 96.195312 288 "/></clipPath><clipPath xml:id="clip9" id="clip9"><path d="M 264 73 L 278.09375 73 L 278.09375 87 L 264 87 Z M 264 73 "/></clipPath><clipPath xml:id="clip10" id="clip10"><path d="M 264 104 L 278.09375 104 L 278.09375 118 L 264 118 Z M 264 104 "/></clipPath><clipPath xml:id="clip11" id="clip11"><path d="M 264 134 L 278.09375 134 L 278.09375 149 L 264 149 Z M 264 134 "/></clipPath><clipPath xml:id="clip12" id="clip12"><path d="M 264 165 L 278.09375 165 L 278.09375 179 L 264 179 Z M 264 165 "/></clipPath><clipPath xml:id="clip13" id="clip13"><path d="M 264 196 L 278.09375 196 L 278.09375 210 L 264 210 Z M 264 196 "/></clipPath><clipPath xml:id="clip14" id="clip14"><path d="M 264 226 L 278.09375 226 L 278.09375 241 L 264 241 Z M 264 226 "/></clipPath><clipPath xml:id="clip15" id="clip15"><path d="M 264 257 L 278.09375 257 L 278.09375 271 L 264 271 Z M 264 257 "/></clipPath><clipPath xml:id="clip16" id="clip16"><path d="M 264 288 L 278.09375 288 L 278.09375 302 L 264 302 Z M 264 288 "/></clipPath></defs><g xml:id="surface1" id="surface1"><rect x="0" width="375" y="0" height="374.999991" style="fill:rgb(100%,100%,100%);fill-opacity:1;stroke:none;"/><rect x="0" width="375" y="0" height="374.999991" style="fill:rgb(100%,100%,100%);fill-opacity:1;stroke:none;"/><rect x="0" width="375" y="0" height="374.999991" style="fill:rgb(23.919678%,81.17981%,82.749939%);fill-opacity:1;stroke:none;"/><path style=" stroke:none;fill-rule:nonzero;fill:rgb(0%,0%,0%);fill-opacity:1;" d="M 249.066406 139.371094 L 124.910156 139.371094 C 124.601562 139.363281 124.296875 139.328125 123.992188 139.261719 C 123.691406 139.199219 123.394531 139.105469 123.113281 138.984375 C 122.828125 138.859375 122.554688 138.714844 122.300781 138.539062 C 122.042969 138.367188 121.804688 138.167969 121.585938 137.949219 C 121.367188 137.730469 121.171875 137.492188 120.996094 137.234375 C 120.824219 136.976562 120.675781 136.707031 120.554688 136.421875 C 120.433594 136.136719 120.339844 135.839844 120.277344 135.539062 C 120.210938 135.234375 120.175781 134.925781 120.171875 134.617188 L 120.171875 79.835938 C 120.171875 79.527344 120.203125 79.21875 120.265625 78.914062 C 120.328125 78.609375 120.417969 78.316406 120.539062 78.03125 C 120.660156 77.742188 120.808594 77.472656 120.980469 77.214844 C 121.152344 76.957031 121.351562 76.71875 121.570312 76.5 C 121.789062 76.285156 122.03125 76.089844 122.289062 75.917969 C 122.546875 75.746094 122.820312 75.601562 123.105469 75.484375 C 123.390625 75.367188 123.6875 75.277344 123.992188 75.21875 C 124.292969 75.160156 124.601562 75.132812 124.910156 75.132812 L 249.066406 75.132812 C 249.382812 75.121094 249.695312 75.140625 250.003906 75.195312 C 250.316406 75.246094 250.617188 75.328125 250.910156 75.441406 C 251.203125 75.554688 251.484375 75.699219 251.75 75.867188 C 252.015625 76.039062 252.257812 76.230469 252.484375 76.453125 C 252.710938 76.671875 252.914062 76.910156 253.089844 77.171875 C 253.269531 77.433594 253.417969 77.707031 253.539062 78 C 253.660156 78.289062 253.753906 78.589844 253.816406 78.898438 C 253.875 79.207031 253.90625 79.519531 253.90625 79.835938 L 253.90625 134.617188 C 253.902344 134.933594 253.871094 135.246094 253.808594 135.554688 C 253.746094 135.863281 253.65625 136.164062 253.53125 136.457031 C 253.410156 136.746094 253.261719 137.023438 253.082031 137.285156 C 252.90625 137.546875 252.703125 137.789062 252.480469 138.007812 C 252.253906 138.230469 252.007812 138.425781 251.746094 138.597656 C 251.480469 138.773438 251.203125 138.917969 250.910156 139.03125 C 250.617188 139.148438 250.316406 139.238281 250.003906 139.292969 C 249.695312 139.351562 249.382812 139.375 249.066406 139.371094 Z M 249.066406 139.371094 "/><path style=" stroke:none;fill-rule:nonzero;fill:rgb(0%,0%,0%);fill-opacity:1;" d="M 249.066406 219.5625 L 124.910156 219.5625 C 124.601562 219.558594 124.292969 219.527344 123.988281 219.46875 C 123.683594 219.40625 123.386719 219.316406 123.097656 219.195312 C 122.8125 219.078125 122.539062 218.929688 122.28125 218.757812 C 122.019531 218.582031 121.78125 218.386719 121.5625 218.164062 C 121.339844 217.945312 121.144531 217.707031 120.972656 217.445312 C 120.800781 217.1875 120.652344 216.914062 120.535156 216.625 C 120.414062 216.335938 120.324219 216.039062 120.261719 215.734375 C 120.203125 215.429688 120.171875 215.121094 120.171875 214.808594 L 120.171875 160.085938 C 120.171875 159.773438 120.199219 159.464844 120.261719 159.160156 C 120.320312 158.855469 120.414062 158.558594 120.53125 158.269531 C 120.652344 157.980469 120.796875 157.707031 120.96875 157.449219 C 121.144531 157.1875 121.339844 156.949219 121.558594 156.730469 C 121.78125 156.507812 122.019531 156.3125 122.277344 156.140625 C 122.535156 155.964844 122.808594 155.820312 123.097656 155.703125 C 123.386719 155.582031 123.683594 155.492188 123.988281 155.433594 C 124.292969 155.371094 124.601562 155.34375 124.910156 155.34375 L 249.066406 155.34375 C 249.382812 155.332031 249.695312 155.355469 250.007812 155.40625 C 250.320312 155.460938 250.625 155.542969 250.917969 155.660156 C 251.210938 155.773438 251.492188 155.917969 251.757812 156.089844 C 252.023438 156.261719 252.269531 156.457031 252.496094 156.679688 C 252.722656 156.902344 252.925781 157.144531 253.101562 157.40625 C 253.277344 157.667969 253.425781 157.945312 253.546875 158.238281 C 253.667969 158.53125 253.761719 158.832031 253.820312 159.144531 C 253.878906 159.457031 253.910156 159.769531 253.90625 160.085938 L 253.90625 214.808594 C 253.90625 215.125 253.878906 215.4375 253.816406 215.75 C 253.757812 216.0625 253.667969 216.363281 253.546875 216.65625 C 253.425781 216.949219 253.273438 217.226562 253.097656 217.488281 C 252.921875 217.75 252.71875 217.992188 252.492188 218.214844 C 252.269531 218.4375 252.023438 218.632812 251.757812 218.804688 C 251.492188 218.980469 251.210938 219.121094 250.917969 219.238281 C 250.621094 219.355469 250.320312 219.4375 250.007812 219.492188 C 249.695312 219.546875 249.382812 219.570312 249.066406 219.5625 Z M 249.066406 219.5625 "/><path style=" stroke:none;fill-rule:nonzero;fill:rgb(0%,0%,0%);fill-opacity:1;" d="M 249.066406 299.78125 L 124.910156 299.78125 C 124.597656 299.78125 124.289062 299.75 123.984375 299.691406 C 123.679688 299.628906 123.382812 299.539062 123.09375 299.417969 C 122.808594 299.300781 122.535156 299.152344 122.273438 298.976562 C 122.015625 298.804688 121.777344 298.605469 121.554688 298.386719 C 121.335938 298.164062 121.140625 297.925781 120.964844 297.664062 C 120.792969 297.402344 120.648438 297.128906 120.527344 296.839844 C 120.410156 296.550781 120.320312 296.253906 120.257812 295.949219 C 120.199219 295.640625 120.167969 295.332031 120.171875 295.019531 L 120.171875 240.308594 C 120.175781 239.996094 120.210938 239.691406 120.277344 239.386719 C 120.339844 239.082031 120.433594 238.789062 120.554688 238.503906 C 120.675781 238.21875 120.824219 237.945312 120.996094 237.6875 C 121.171875 237.433594 121.367188 237.195312 121.585938 236.972656 C 121.804688 236.753906 122.042969 236.558594 122.300781 236.382812 C 122.554688 236.210938 122.828125 236.0625 123.113281 235.941406 C 123.394531 235.820312 123.691406 235.726562 123.992188 235.660156 C 124.296875 235.597656 124.601562 235.5625 124.910156 235.554688 L 249.066406 235.554688 C 249.378906 235.554688 249.6875 235.582031 249.996094 235.640625 C 250.300781 235.703125 250.597656 235.792969 250.886719 235.910156 C 251.175781 236.03125 251.449219 236.175781 251.710938 236.347656 C 251.96875 236.523438 252.210938 236.71875 252.433594 236.941406 C 252.652344 237.160156 252.851562 237.402344 253.023438 237.660156 C 253.199219 237.921875 253.34375 238.195312 253.464844 238.484375 C 253.585938 238.773438 253.675781 239.070312 253.734375 239.378906 C 253.796875 239.683594 253.828125 239.992188 253.828125 240.308594 L 253.828125 295.019531 C 253.832031 295.332031 253.804688 295.644531 253.746094 295.953125 C 253.6875 296.261719 253.597656 296.5625 253.480469 296.851562 C 253.363281 297.144531 253.214844 297.421875 253.042969 297.683594 C 252.871094 297.945312 252.671875 298.183594 252.449219 298.40625 C 252.226562 298.628906 251.988281 298.828125 251.726562 299 C 251.464844 299.175781 251.1875 299.320312 250.898438 299.4375 C 250.605469 299.554688 250.308594 299.644531 250 299.703125 C 249.691406 299.757812 249.378906 299.785156 249.066406 299.78125 Z M 249.066406 299.78125 "/><g clip-rule="nonzero" clip-path="url(#clip1)"><path style=" stroke:none;fill-rule:nonzero;fill:rgb(0%,0%,0%);fill-opacity:1;" d="M 104.46875 86.808594 L 100.644531 86.808594 C 100.332031 86.8125 100.023438 86.78125 99.71875 86.71875 C 99.414062 86.660156 99.117188 86.570312 98.828125 86.449219 C 98.542969 86.332031 98.269531 86.1875 98.007812 86.011719 C 97.75 85.839844 97.511719 85.640625 97.289062 85.421875 C 97.070312 85.199219 96.875 84.960938 96.699219 84.699219 C 96.527344 84.441406 96.382812 84.167969 96.261719 83.878906 C 96.144531 83.589844 96.054688 83.292969 95.992188 82.984375 C 95.933594 82.679688 95.902344 82.371094 95.902344 82.058594 L 95.902344 78.21875 C 95.898438 77.902344 95.921875 77.59375 95.980469 77.285156 C 96.035156 76.976562 96.125 76.675781 96.242188 76.382812 C 96.359375 76.09375 96.503906 75.816406 96.675781 75.554688 C 96.847656 75.292969 97.046875 75.050781 97.265625 74.828125 C 97.488281 74.609375 97.730469 74.410156 97.988281 74.238281 C 98.25 74.066406 98.527344 73.917969 98.816406 73.800781 C 99.105469 73.683594 99.40625 73.597656 99.714844 73.539062 C 100.023438 73.484375 100.332031 73.457031 100.644531 73.464844 L 104.515625 73.464844 C 104.828125 73.464844 105.136719 73.492188 105.441406 73.550781 C 105.746094 73.613281 106.042969 73.703125 106.332031 73.820312 C 106.621094 73.941406 106.894531 74.085938 107.152344 74.257812 C 107.414062 74.433594 107.652344 74.628906 107.875 74.851562 C 108.09375 75.070312 108.289062 75.3125 108.464844 75.570312 C 108.636719 75.832031 108.78125 76.105469 108.902344 76.394531 C 109.019531 76.683594 109.109375 76.980469 109.167969 77.289062 C 109.226562 77.59375 109.257812 77.90625 109.257812 78.21875 L 109.257812 82.097656 C 109.246094 82.40625 109.210938 82.714844 109.140625 83.015625 C 109.074219 83.320312 108.980469 83.613281 108.855469 83.898438 C 108.730469 84.183594 108.582031 84.453125 108.40625 84.710938 C 108.230469 84.96875 108.03125 85.203125 107.808594 85.421875 C 107.589844 85.640625 107.347656 85.832031 107.089844 86.003906 C 106.832031 86.175781 106.558594 86.320312 106.273438 86.441406 C 105.988281 86.558594 105.691406 86.652344 105.386719 86.710938 C 105.082031 86.773438 104.777344 86.808594 104.46875 86.808594 Z M 104.46875 86.808594 "/></g><g clip-rule="nonzero" clip-path="url(#clip2)"><path style=" stroke:none;fill-rule:nonzero;fill:rgb(0%,0%,0%);fill-opacity:1;" d="M 104.46875 117.488281 L 100.644531 117.488281 C 100.332031 117.488281 100.023438 117.460938 99.71875 117.398438 C 99.414062 117.339844 99.117188 117.25 98.828125 117.128906 C 98.542969 117.011719 98.269531 116.863281 98.007812 116.691406 C 97.75 116.515625 97.511719 116.320312 97.289062 116.097656 C 97.070312 115.878906 96.875 115.636719 96.699219 115.378906 C 96.527344 115.117188 96.382812 114.84375 96.261719 114.554688 C 96.144531 114.265625 96.054688 113.96875 95.992188 113.664062 C 95.933594 113.355469 95.902344 113.046875 95.902344 112.734375 L 95.902344 108.925781 C 95.898438 108.609375 95.925781 108.300781 95.984375 107.992188 C 96.042969 107.683594 96.128906 107.386719 96.246094 107.09375 C 96.363281 106.804688 96.507812 106.527344 96.683594 106.265625 C 96.855469 106.007812 97.050781 105.765625 97.273438 105.542969 C 97.492188 105.320312 97.734375 105.125 97.996094 104.949219 C 98.253906 104.777344 98.53125 104.632812 98.820312 104.515625 C 99.109375 104.398438 99.410156 104.308594 99.714844 104.25 C 100.023438 104.195312 100.332031 104.167969 100.644531 104.171875 L 104.515625 104.171875 C 104.828125 104.171875 105.136719 104.199219 105.441406 104.261719 C 105.746094 104.320312 106.042969 104.410156 106.332031 104.53125 C 106.617188 104.648438 106.890625 104.796875 107.152344 104.96875 C 107.410156 105.144531 107.648438 105.339844 107.871094 105.5625 C 108.089844 105.78125 108.289062 106.023438 108.460938 106.28125 C 108.632812 106.542969 108.777344 106.816406 108.898438 107.105469 C 109.015625 107.390625 109.105469 107.691406 109.167969 107.996094 C 109.226562 108.300781 109.257812 108.613281 109.257812 108.925781 L 109.257812 112.734375 C 109.25 113.046875 109.214844 113.355469 109.148438 113.664062 C 109.082031 113.96875 108.988281 114.265625 108.867188 114.550781 C 108.742188 114.835938 108.59375 115.109375 108.417969 115.367188 C 108.242188 115.625 108.042969 115.867188 107.824219 116.085938 C 107.601562 116.304688 107.359375 116.5 107.101562 116.675781 C 106.84375 116.847656 106.570312 116.996094 106.28125 117.113281 C 105.992188 117.234375 105.699219 117.328125 105.390625 117.390625 C 105.085938 117.453125 104.777344 117.484375 104.46875 117.488281 Z M 104.46875 117.488281 "/></g><g clip-rule="nonzero" clip-path="url(#clip3)"><path style=" stroke:none;fill-rule:nonzero;fill:rgb(0%,0%,0%);fill-opacity:1;" d="M 104.46875 148.15625 L 100.644531 148.15625 C 100.332031 148.15625 100.023438 148.128906 99.71875 148.066406 C 99.414062 148.007812 99.117188 147.917969 98.828125 147.796875 C 98.542969 147.679688 98.269531 147.53125 98.007812 147.359375 C 97.75 147.183594 97.511719 146.988281 97.289062 146.765625 C 97.070312 146.546875 96.875 146.304688 96.699219 146.046875 C 96.527344 145.785156 96.382812 145.511719 96.261719 145.222656 C 96.144531 144.9375 96.054688 144.636719 95.992188 144.332031 C 95.933594 144.027344 95.902344 143.714844 95.902344 143.402344 L 95.902344 139.59375 C 95.898438 139.277344 95.925781 138.96875 95.984375 138.660156 C 96.042969 138.351562 96.128906 138.054688 96.246094 137.761719 C 96.363281 137.472656 96.507812 137.195312 96.683594 136.933594 C 96.855469 136.675781 97.050781 136.433594 97.273438 136.210938 C 97.492188 135.988281 97.734375 135.792969 97.996094 135.621094 C 98.253906 135.445312 98.53125 135.300781 98.820312 135.183594 C 99.109375 135.066406 99.410156 134.976562 99.714844 134.917969 C 100.023438 134.863281 100.332031 134.835938 100.644531 134.839844 L 104.515625 134.839844 C 104.828125 134.839844 105.136719 134.867188 105.441406 134.929688 C 105.746094 134.988281 106.042969 135.078125 106.332031 135.199219 C 106.617188 135.316406 106.890625 135.464844 107.152344 135.636719 C 107.410156 135.8125 107.648438 136.007812 107.871094 136.230469 C 108.089844 136.449219 108.289062 136.691406 108.460938 136.949219 C 108.632812 137.210938 108.777344 137.484375 108.898438 137.773438 C 109.015625 138.0625 109.105469 138.359375 109.167969 138.664062 C 109.226562 138.972656 109.257812 139.28125 109.257812 139.59375 L 109.257812 143.402344 C 109.25 143.714844 109.214844 144.023438 109.148438 144.332031 C 109.082031 144.636719 108.988281 144.933594 108.867188 145.21875 C 108.742188 145.507812 108.59375 145.777344 108.417969 146.035156 C 108.242188 146.296875 108.042969 146.535156 107.824219 146.753906 C 107.601562 146.972656 107.359375 147.171875 107.101562 147.34375 C 106.84375 147.515625 106.570312 147.664062 106.28125 147.785156 C 105.992188 147.902344 105.699219 147.996094 105.390625 148.058594 C 105.085938 148.121094 104.777344 148.152344 104.46875 148.15625 Z M 104.46875 148.15625 "/></g><g clip-rule="nonzero" clip-path="url(#clip4)"><path style=" stroke:none;fill-rule:nonzero;fill:rgb(0%,0%,0%);fill-opacity:1;" d="M 104.46875 178.746094 L 100.644531 178.746094 C 100.335938 178.753906 100.027344 178.726562 99.726562 178.671875 C 99.421875 178.617188 99.125 178.53125 98.835938 178.417969 C 98.550781 178.304688 98.277344 178.160156 98.019531 177.992188 C 97.757812 177.824219 97.519531 177.628906 97.296875 177.414062 C 97.078125 177.195312 96.878906 176.957031 96.707031 176.703125 C 96.53125 176.445312 96.386719 176.175781 96.265625 175.886719 C 96.148438 175.601562 96.058594 175.308594 95.996094 175.003906 C 95.933594 174.699219 95.902344 174.390625 95.902344 174.082031 L 95.902344 170.144531 C 95.90625 169.835938 95.9375 169.53125 96 169.226562 C 96.0625 168.925781 96.152344 168.628906 96.273438 168.347656 C 96.394531 168.0625 96.539062 167.792969 96.714844 167.535156 C 96.886719 167.28125 97.085938 167.046875 97.304688 166.832031 C 97.527344 166.613281 97.765625 166.421875 98.023438 166.253906 C 98.28125 166.085938 98.554688 165.945312 98.84375 165.832031 C 99.128906 165.71875 99.425781 165.636719 99.726562 165.582031 C 100.03125 165.527344 100.335938 165.5 100.644531 165.507812 L 104.515625 165.507812 C 104.824219 165.503906 105.128906 165.53125 105.429688 165.589844 C 105.730469 165.648438 106.023438 165.734375 106.308594 165.847656 C 106.59375 165.964844 106.863281 166.105469 107.121094 166.273438 C 107.378906 166.441406 107.617188 166.632812 107.839844 166.847656 C 108.058594 167.0625 108.253906 167.296875 108.429688 167.550781 C 108.601562 167.804688 108.75 168.074219 108.871094 168.355469 C 108.996094 168.636719 109.085938 168.929688 109.152344 169.230469 C 109.214844 169.53125 109.25 169.835938 109.257812 170.144531 L 109.257812 174.082031 C 109.25 174.394531 109.21875 174.699219 109.152344 175.003906 C 109.085938 175.308594 108.992188 175.601562 108.871094 175.886719 C 108.75 176.171875 108.597656 176.445312 108.421875 176.699219 C 108.246094 176.957031 108.046875 177.191406 107.824219 177.410156 C 107.601562 177.625 107.363281 177.820312 107.101562 177.988281 C 106.839844 178.15625 106.566406 178.296875 106.277344 178.414062 C 105.992188 178.527344 105.695312 178.613281 105.390625 178.667969 C 105.085938 178.726562 104.777344 178.75 104.46875 178.746094 Z M 104.46875 178.746094 "/></g><g clip-rule="nonzero" clip-path="url(#clip5)"><path style=" stroke:none;fill-rule:nonzero;fill:rgb(0%,0%,0%);fill-opacity:1;" d="M 104.46875 209.40625 L 100.644531 209.40625 C 100.332031 209.410156 100.023438 209.386719 99.714844 209.328125 C 99.40625 209.269531 99.109375 209.183594 98.820312 209.066406 C 98.527344 208.949219 98.253906 208.800781 97.992188 208.628906 C 97.730469 208.457031 97.492188 208.257812 97.269531 208.039062 C 97.046875 207.816406 96.851562 207.574219 96.679688 207.3125 C 96.507812 207.050781 96.359375 206.773438 96.242188 206.484375 C 96.125 206.195312 96.039062 205.894531 95.980469 205.585938 C 95.925781 205.277344 95.898438 204.96875 95.902344 204.652344 L 95.902344 200.832031 C 95.902344 200.519531 95.933594 200.210938 95.992188 199.902344 C 96.050781 199.597656 96.140625 199.296875 96.257812 199.007812 C 96.378906 198.71875 96.523438 198.445312 96.695312 198.183594 C 96.871094 197.925781 97.066406 197.683594 97.285156 197.460938 C 97.507812 197.242188 97.746094 197.042969 98.003906 196.871094 C 98.265625 196.695312 98.539062 196.550781 98.828125 196.429688 C 99.117188 196.308594 99.414062 196.21875 99.71875 196.160156 C 100.023438 196.097656 100.332031 196.070312 100.644531 196.070312 L 104.515625 196.070312 C 104.824219 196.074219 105.132812 196.113281 105.433594 196.175781 C 105.738281 196.242188 106.03125 196.335938 106.316406 196.457031 C 106.601562 196.578125 106.875 196.726562 107.128906 196.902344 C 107.386719 197.074219 107.625 197.273438 107.84375 197.492188 C 108.0625 197.710938 108.257812 197.953125 108.433594 198.210938 C 108.605469 198.46875 108.753906 198.738281 108.875 199.023438 C 108.996094 199.3125 109.085938 199.605469 109.152344 199.910156 C 109.214844 200.214844 109.25 200.519531 109.257812 200.832031 L 109.257812 204.652344 C 109.257812 204.96875 109.226562 205.28125 109.167969 205.589844 C 109.105469 205.894531 109.015625 206.195312 108.894531 206.488281 C 108.777344 206.777344 108.628906 207.050781 108.453125 207.3125 C 108.277344 207.574219 108.078125 207.816406 107.855469 208.035156 C 107.632812 208.257812 107.390625 208.457031 107.128906 208.628906 C 106.867188 208.800781 106.589844 208.945312 106.300781 209.0625 C 106.007812 209.179688 105.707031 209.269531 105.398438 209.328125 C 105.089844 209.382812 104.78125 209.410156 104.46875 209.40625 Z M 104.46875 209.40625 "/></g><g clip-rule="nonzero" clip-path="url(#clip6)"><path style=" stroke:none;fill-rule:nonzero;fill:rgb(0%,0%,0%);fill-opacity:1;" d="M 104.46875 240.074219 L 100.644531 240.074219 C 100.332031 240.078125 100.023438 240.050781 99.714844 239.996094 C 99.40625 239.9375 99.109375 239.847656 98.816406 239.730469 C 98.527344 239.613281 98.253906 239.464844 97.992188 239.292969 C 97.730469 239.121094 97.488281 238.921875 97.269531 238.699219 C 97.046875 238.476562 96.851562 238.234375 96.679688 237.972656 C 96.503906 237.710938 96.359375 237.433594 96.242188 237.144531 C 96.125 236.855469 96.039062 236.554688 95.980469 236.246094 C 95.925781 235.9375 95.898438 235.625 95.902344 235.3125 L 95.902344 231.511719 C 95.902344 231.199219 95.933594 230.886719 95.992188 230.582031 C 96.050781 230.273438 96.140625 229.976562 96.261719 229.6875 C 96.378906 229.398438 96.523438 229.125 96.695312 228.863281 C 96.871094 228.605469 97.066406 228.363281 97.285156 228.144531 C 97.507812 227.921875 97.746094 227.726562 98.007812 227.550781 C 98.265625 227.378906 98.539062 227.234375 98.828125 227.113281 C 99.117188 226.996094 99.414062 226.90625 99.71875 226.84375 C 100.023438 226.785156 100.332031 226.757812 100.644531 226.757812 L 104.515625 226.757812 C 104.824219 226.761719 105.132812 226.800781 105.433594 226.863281 C 105.738281 226.929688 106.03125 227.023438 106.316406 227.144531 C 106.601562 227.265625 106.871094 227.414062 107.128906 227.585938 C 107.382812 227.761719 107.621094 227.957031 107.839844 228.175781 C 108.058594 228.394531 108.253906 228.632812 108.429688 228.890625 C 108.601562 229.148438 108.75 229.421875 108.871094 229.707031 C 108.992188 229.992188 109.085938 230.285156 109.148438 230.589844 C 109.214844 230.894531 109.25 231.199219 109.257812 231.511719 L 109.257812 235.339844 C 109.253906 235.65625 109.222656 235.964844 109.164062 236.273438 C 109.101562 236.578125 109.007812 236.878906 108.886719 237.167969 C 108.765625 237.457031 108.617188 237.730469 108.445312 237.988281 C 108.269531 238.25 108.070312 238.488281 107.847656 238.710938 C 107.625 238.929688 107.382812 239.125 107.121094 239.296875 C 106.859375 239.46875 106.582031 239.613281 106.292969 239.730469 C 106.003906 239.847656 105.703125 239.9375 105.398438 239.992188 C 105.089844 240.050781 104.78125 240.078125 104.46875 240.074219 Z M 104.46875 240.074219 "/></g><g clip-rule="nonzero" clip-path="url(#clip7)"><path style=" stroke:none;fill-rule:nonzero;fill:rgb(0%,0%,0%);fill-opacity:1;" d="M 104.46875 270.734375 L 100.644531 270.734375 C 100.332031 270.738281 100.023438 270.710938 99.714844 270.652344 C 99.410156 270.59375 99.109375 270.507812 98.820312 270.390625 C 98.53125 270.273438 98.253906 270.125 97.996094 269.953125 C 97.734375 269.78125 97.492188 269.582031 97.273438 269.359375 C 97.050781 269.140625 96.855469 268.898438 96.683594 268.636719 C 96.507812 268.375 96.363281 268.101562 96.246094 267.808594 C 96.128906 267.519531 96.042969 267.21875 95.984375 266.914062 C 95.925781 266.605469 95.898438 266.292969 95.902344 265.980469 L 95.902344 262.179688 C 95.902344 261.867188 95.933594 261.554688 95.992188 261.25 C 96.050781 260.941406 96.140625 260.644531 96.261719 260.355469 C 96.378906 260.066406 96.523438 259.792969 96.695312 259.535156 C 96.871094 259.273438 97.066406 259.03125 97.285156 258.8125 C 97.507812 258.589844 97.746094 258.394531 98.007812 258.222656 C 98.265625 258.046875 98.539062 257.902344 98.828125 257.78125 C 99.117188 257.664062 99.414062 257.574219 99.71875 257.515625 C 100.023438 257.453125 100.332031 257.425781 100.644531 257.425781 L 104.515625 257.425781 C 104.824219 257.433594 105.132812 257.46875 105.433594 257.53125 C 105.738281 257.597656 106.03125 257.691406 106.316406 257.8125 C 106.601562 257.933594 106.871094 258.082031 107.128906 258.253906 C 107.382812 258.429688 107.621094 258.625 107.839844 258.84375 C 108.058594 259.066406 108.253906 259.304688 108.429688 259.558594 C 108.601562 259.816406 108.75 260.089844 108.871094 260.375 C 108.992188 260.660156 109.085938 260.953125 109.148438 261.257812 C 109.214844 261.5625 109.25 261.867188 109.257812 262.179688 L 109.257812 265.980469 C 109.257812 266.292969 109.226562 266.605469 109.164062 266.914062 C 109.105469 267.222656 109.015625 267.523438 108.894531 267.8125 C 108.773438 268.101562 108.625 268.378906 108.449219 268.636719 C 108.273438 268.898438 108.078125 269.140625 107.855469 269.359375 C 107.628906 269.582031 107.386719 269.777344 107.125 269.953125 C 106.863281 270.125 106.589844 270.269531 106.296875 270.386719 C 106.007812 270.503906 105.707031 270.59375 105.398438 270.652344 C 105.089844 270.710938 104.78125 270.738281 104.46875 270.734375 Z M 104.46875 270.734375 "/></g><g clip-rule="nonzero" clip-path="url(#clip8)"><path style=" stroke:none;fill-rule:nonzero;fill:rgb(0%,0%,0%);fill-opacity:1;" d="M 104.46875 301.421875 L 100.644531 301.421875 C 100.332031 301.421875 100.023438 301.390625 99.71875 301.332031 C 99.414062 301.269531 99.117188 301.179688 98.828125 301.058594 C 98.539062 300.941406 98.265625 300.792969 98.003906 300.621094 C 97.746094 300.445312 97.507812 300.25 97.285156 300.027344 C 97.066406 299.804688 96.871094 299.566406 96.695312 299.304688 C 96.523438 299.046875 96.378906 298.769531 96.257812 298.480469 C 96.140625 298.191406 96.050781 297.894531 95.992188 297.585938 C 95.933594 297.28125 95.902344 296.972656 95.902344 296.660156 L 95.902344 292.855469 C 95.902344 292.542969 95.933594 292.234375 95.992188 291.929688 C 96.050781 291.621094 96.140625 291.324219 96.261719 291.035156 C 96.378906 290.746094 96.523438 290.472656 96.695312 290.210938 C 96.871094 289.953125 97.066406 289.710938 97.285156 289.488281 C 97.507812 289.269531 97.746094 289.070312 98.007812 288.898438 C 98.265625 288.726562 98.539062 288.578125 98.828125 288.460938 C 99.117188 288.339844 99.414062 288.25 99.71875 288.191406 C 100.023438 288.132812 100.332031 288.101562 100.644531 288.105469 L 104.515625 288.105469 C 104.824219 288.109375 105.132812 288.144531 105.433594 288.210938 C 105.738281 288.277344 106.03125 288.367188 106.316406 288.492188 C 106.601562 288.613281 106.871094 288.761719 107.128906 288.933594 C 107.382812 289.105469 107.621094 289.304688 107.839844 289.523438 C 108.058594 289.742188 108.253906 289.980469 108.429688 290.238281 C 108.601562 290.496094 108.75 290.765625 108.871094 291.050781 C 108.992188 291.335938 109.085938 291.632812 109.148438 291.9375 C 109.214844 292.238281 109.25 292.546875 109.257812 292.855469 L 109.257812 296.660156 C 109.25 296.972656 109.214844 297.28125 109.148438 297.585938 C 109.085938 297.890625 108.992188 298.1875 108.867188 298.476562 C 108.746094 298.765625 108.597656 299.035156 108.421875 299.296875 C 108.246094 299.554688 108.046875 299.792969 107.828125 300.015625 C 107.605469 300.234375 107.363281 300.429688 107.105469 300.605469 C 106.84375 300.777344 106.570312 300.925781 106.285156 301.046875 C 105.996094 301.167969 105.699219 301.257812 105.394531 301.320312 C 105.085938 301.382812 104.777344 301.417969 104.46875 301.421875 Z M 104.46875 301.421875 "/></g><g clip-rule="nonzero" clip-path="url(#clip9)"><path style=" stroke:none;fill-rule:nonzero;fill:rgb(0%,0%,0%);fill-opacity:1;" d="M 273.441406 86.808594 L 269.570312 86.808594 C 269.261719 86.804688 268.957031 86.769531 268.652344 86.707031 C 268.351562 86.640625 268.058594 86.546875 267.777344 86.425781 C 267.492188 86.304688 267.222656 86.15625 266.96875 85.984375 C 266.710938 85.808594 266.476562 85.613281 266.261719 85.390625 C 266.042969 85.171875 265.847656 84.933594 265.679688 84.675781 C 265.507812 84.417969 265.363281 84.144531 265.246094 83.859375 C 265.128906 83.574219 265.039062 83.28125 264.980469 82.976562 C 264.917969 82.671875 264.886719 82.367188 264.886719 82.058594 L 264.886719 78.21875 C 264.882812 77.90625 264.910156 77.597656 264.964844 77.292969 C 265.023438 76.988281 265.109375 76.691406 265.226562 76.402344 C 265.34375 76.113281 265.484375 75.839844 265.65625 75.582031 C 265.824219 75.320312 266.019531 75.082031 266.238281 74.859375 C 266.453125 74.640625 266.691406 74.441406 266.949219 74.269531 C 267.207031 74.09375 267.476562 73.945312 267.765625 73.828125 C 268.050781 73.707031 268.34375 73.617188 268.648438 73.554688 C 268.953125 73.496094 269.257812 73.464844 269.570312 73.464844 L 273.441406 73.464844 C 273.75 73.460938 274.058594 73.488281 274.363281 73.546875 C 274.671875 73.605469 274.96875 73.695312 275.257812 73.8125 C 275.542969 73.933594 275.816406 74.078125 276.074219 74.25 C 276.335938 74.425781 276.574219 74.621094 276.792969 74.84375 C 277.011719 75.066406 277.207031 75.308594 277.378906 75.566406 C 277.550781 75.828125 277.691406 76.105469 277.808594 76.394531 C 277.925781 76.683594 278.011719 76.980469 278.066406 77.289062 C 278.121094 77.59375 278.148438 77.90625 278.140625 78.21875 L 278.140625 82.097656 C 278.140625 82.40625 278.109375 82.710938 278.046875 83.015625 C 277.988281 83.316406 277.898438 83.613281 277.777344 83.898438 C 277.660156 84.183594 277.515625 84.453125 277.34375 84.710938 C 277.171875 84.96875 276.976562 85.207031 276.757812 85.425781 C 276.539062 85.644531 276.304688 85.839844 276.046875 86.011719 C 275.792969 86.183594 275.519531 86.328125 275.234375 86.445312 C 274.953125 86.566406 274.65625 86.65625 274.355469 86.714844 C 274.054688 86.777344 273.746094 86.808594 273.441406 86.808594 Z M 273.441406 86.808594 "/></g><g clip-rule="nonzero" clip-path="url(#clip10)"><path style=" stroke:none;fill-rule:nonzero;fill:rgb(0%,0%,0%);fill-opacity:1;" d="M 273.441406 117.488281 L 269.570312 117.488281 C 269.261719 117.484375 268.957031 117.449219 268.652344 117.382812 C 268.351562 117.320312 268.058594 117.226562 267.777344 117.105469 C 267.492188 116.984375 267.222656 116.835938 266.96875 116.660156 C 266.710938 116.488281 266.476562 116.289062 266.261719 116.070312 C 266.042969 115.851562 265.847656 115.613281 265.679688 115.355469 C 265.507812 115.097656 265.363281 114.824219 265.246094 114.539062 C 265.128906 114.253906 265.039062 113.957031 264.980469 113.65625 C 264.917969 113.351562 264.886719 113.046875 264.886719 112.734375 L 264.886719 108.925781 C 264.882812 108.613281 264.910156 108.304688 264.96875 108 C 265.027344 107.695312 265.113281 107.398438 265.230469 107.109375 C 265.34375 106.824219 265.488281 106.550781 265.660156 106.289062 C 265.828125 106.03125 266.023438 105.789062 266.242188 105.570312 C 266.457031 105.347656 266.695312 105.152344 266.953125 104.976562 C 267.207031 104.804688 267.480469 104.65625 267.765625 104.535156 C 268.050781 104.417969 268.34375 104.328125 268.648438 104.265625 C 268.953125 104.203125 269.257812 104.171875 269.570312 104.171875 L 273.441406 104.171875 C 273.75 104.167969 274.058594 104.195312 274.363281 104.257812 C 274.671875 104.316406 274.964844 104.40625 275.253906 104.523438 C 275.542969 104.640625 275.816406 104.789062 276.074219 104.960938 C 276.332031 105.136719 276.570312 105.332031 276.789062 105.554688 C 277.007812 105.777344 277.203125 106.015625 277.375 106.277344 C 277.546875 106.539062 277.691406 106.8125 277.804688 107.101562 C 277.921875 107.390625 278.007812 107.691406 278.066406 107.996094 C 278.121094 108.304688 278.148438 108.613281 278.140625 108.925781 L 278.140625 112.734375 C 278.144531 113.046875 278.113281 113.355469 278.054688 113.660156 C 277.996094 113.964844 277.90625 114.261719 277.789062 114.546875 C 277.671875 114.835938 277.527344 115.109375 277.355469 115.367188 C 277.1875 115.628906 276.992188 115.867188 276.773438 116.089844 C 276.554688 116.308594 276.316406 116.507812 276.058594 116.679688 C 275.800781 116.855469 275.53125 117 275.246094 117.121094 C 274.960938 117.242188 274.664062 117.332031 274.359375 117.394531 C 274.054688 117.457031 273.75 117.488281 273.441406 117.488281 Z M 273.441406 117.488281 "/></g><g clip-rule="nonzero" clip-path="url(#clip11)"><path style=" stroke:none;fill-rule:nonzero;fill:rgb(0%,0%,0%);fill-opacity:1;" d="M 273.441406 148.15625 L 269.570312 148.15625 C 269.261719 148.152344 268.957031 148.117188 268.652344 148.050781 C 268.351562 147.988281 268.058594 147.894531 267.777344 147.773438 C 267.492188 147.652344 267.222656 147.503906 266.96875 147.328125 C 266.710938 147.15625 266.476562 146.957031 266.261719 146.738281 C 266.042969 146.519531 265.847656 146.28125 265.679688 146.023438 C 265.507812 145.765625 265.363281 145.492188 265.246094 145.207031 C 265.128906 144.921875 265.039062 144.625 264.980469 144.324219 C 264.917969 144.019531 264.886719 143.714844 264.886719 143.402344 L 264.886719 139.59375 C 264.882812 139.28125 264.910156 138.972656 264.96875 138.667969 C 265.027344 138.363281 265.113281 138.066406 265.230469 137.78125 C 265.34375 137.492188 265.488281 137.21875 265.660156 136.957031 C 265.828125 136.699219 266.023438 136.460938 266.242188 136.238281 C 266.457031 136.015625 266.695312 135.820312 266.953125 135.644531 C 267.207031 135.472656 267.480469 135.324219 267.765625 135.207031 C 268.050781 135.085938 268.34375 134.996094 268.648438 134.933594 C 268.953125 134.871094 269.257812 134.839844 269.570312 134.839844 L 273.441406 134.839844 C 273.75 134.835938 274.058594 134.867188 274.363281 134.925781 C 274.671875 134.984375 274.964844 135.074219 275.253906 135.191406 C 275.542969 135.308594 275.816406 135.457031 276.074219 135.628906 C 276.332031 135.804688 276.570312 136 276.789062 136.222656 C 277.007812 136.445312 277.203125 136.683594 277.375 136.945312 C 277.546875 137.207031 277.691406 137.480469 277.804688 137.769531 C 277.921875 138.058594 278.007812 138.359375 278.066406 138.664062 C 278.121094 138.972656 278.148438 139.28125 278.140625 139.59375 L 278.140625 143.402344 C 278.144531 143.714844 278.113281 144.023438 278.054688 144.328125 C 277.996094 144.632812 277.90625 144.929688 277.789062 145.21875 C 277.671875 145.503906 277.527344 145.777344 277.355469 146.035156 C 277.1875 146.296875 276.992188 146.535156 276.773438 146.757812 C 276.554688 146.976562 276.316406 147.175781 276.058594 147.347656 C 275.800781 147.523438 275.53125 147.667969 275.246094 147.789062 C 274.960938 147.910156 274.664062 148 274.359375 148.0625 C 274.054688 148.125 273.75 148.15625 273.441406 148.15625 Z M 273.441406 148.15625 "/></g><g clip-rule="nonzero" clip-path="url(#clip12)"><path style=" stroke:none;fill-rule:nonzero;fill:rgb(0%,0%,0%);fill-opacity:1;" d="M 273.441406 178.746094 L 269.570312 178.746094 C 269.261719 178.746094 268.960938 178.71875 268.660156 178.65625 C 268.359375 178.597656 268.066406 178.511719 267.785156 178.394531 C 267.5 178.277344 267.230469 178.132812 266.976562 177.960938 C 266.722656 177.792969 266.484375 177.597656 266.269531 177.382812 C 266.050781 177.167969 265.855469 176.929688 265.6875 176.675781 C 265.515625 176.421875 265.371094 176.152344 265.25 175.871094 C 265.132812 175.585938 265.042969 175.292969 264.980469 174.992188 C 264.921875 174.691406 264.886719 174.390625 264.886719 174.082031 L 264.886719 170.144531 C 264.890625 169.839844 264.921875 169.539062 264.984375 169.238281 C 265.046875 168.941406 265.136719 168.652344 265.253906 168.371094 C 265.371094 168.089844 265.515625 167.824219 265.6875 167.570312 C 265.855469 167.316406 266.050781 167.085938 266.265625 166.871094 C 266.480469 166.65625 266.714844 166.464844 266.96875 166.292969 C 267.222656 166.125 267.488281 165.980469 267.769531 165.867188 C 268.050781 165.75 268.339844 165.660156 268.636719 165.601562 C 268.933594 165.539062 269.238281 165.507812 269.539062 165.507812 L 273.410156 165.507812 C 273.71875 165.503906 274.023438 165.53125 274.324219 165.585938 C 274.625 165.640625 274.917969 165.726562 275.203125 165.839844 C 275.488281 165.957031 275.757812 166.097656 276.015625 166.265625 C 276.273438 166.433594 276.507812 166.625 276.726562 166.839844 C 276.945312 167.058594 277.140625 167.292969 277.3125 167.546875 C 277.488281 167.800781 277.632812 168.070312 277.75 168.355469 C 277.871094 168.636719 277.960938 168.929688 278.019531 169.230469 C 278.082031 169.53125 278.113281 169.835938 278.113281 170.144531 L 278.113281 174.082031 C 278.113281 174.390625 278.085938 174.695312 278.023438 174.996094 C 277.964844 175.296875 277.875 175.589844 277.757812 175.875 C 277.640625 176.15625 277.5 176.425781 277.328125 176.683594 C 277.15625 176.9375 276.964844 177.171875 276.746094 177.390625 C 276.527344 177.609375 276.292969 177.800781 276.035156 177.972656 C 275.78125 178.140625 275.511719 178.285156 275.226562 178.398438 C 274.945312 178.515625 274.652344 178.605469 274.351562 178.664062 C 274.050781 178.722656 273.746094 178.75 273.441406 178.746094 Z M 273.441406 178.746094 "/></g><g clip-rule="nonzero" clip-path="url(#clip13)"><path style=" stroke:none;fill-rule:nonzero;fill:rgb(0%,0%,0%);fill-opacity:1;" d="M 273.441406 209.40625 L 269.570312 209.40625 C 269.257812 209.40625 268.953125 209.375 268.648438 209.3125 C 268.34375 209.253906 268.050781 209.164062 267.765625 209.042969 C 267.476562 208.921875 267.207031 208.777344 266.949219 208.601562 C 266.691406 208.429688 266.457031 208.230469 266.238281 208.011719 C 266.019531 207.789062 265.824219 207.550781 265.65625 207.289062 C 265.484375 207.03125 265.34375 206.753906 265.226562 206.46875 C 265.109375 206.179688 265.023438 205.882812 264.964844 205.578125 C 264.910156 205.273438 264.882812 204.964844 264.886719 204.652344 L 264.886719 200.832031 C 264.886719 200.523438 264.917969 200.214844 264.976562 199.910156 C 265.039062 199.609375 265.125 199.3125 265.242188 199.027344 C 265.363281 198.738281 265.503906 198.46875 265.675781 198.210938 C 265.847656 197.949219 266.039062 197.710938 266.257812 197.492188 C 266.472656 197.269531 266.710938 197.074219 266.964844 196.898438 C 267.21875 196.722656 267.488281 196.574219 267.773438 196.453125 C 268.058594 196.332031 268.351562 196.238281 268.652344 196.175781 C 268.953125 196.109375 269.261719 196.074219 269.570312 196.070312 L 273.441406 196.070312 C 273.75 196.070312 274.058594 196.101562 274.363281 196.164062 C 274.664062 196.226562 274.960938 196.316406 275.246094 196.4375 C 275.535156 196.558594 275.804688 196.707031 276.0625 196.878906 C 276.320312 197.054688 276.558594 197.253906 276.777344 197.472656 C 276.996094 197.695312 277.1875 197.933594 277.359375 198.195312 C 277.53125 198.453125 277.675781 198.726562 277.792969 199.015625 C 277.910156 199.304688 277.996094 199.601562 278.054688 199.90625 C 278.117188 200.210938 278.144531 200.519531 278.140625 200.832031 L 278.140625 204.652344 C 278.148438 204.964844 278.121094 205.273438 278.066406 205.582031 C 278.011719 205.890625 277.925781 206.1875 277.808594 206.476562 C 277.691406 206.765625 277.550781 207.042969 277.378906 207.300781 C 277.207031 207.5625 277.011719 207.804688 276.792969 208.027344 C 276.574219 208.246094 276.335938 208.445312 276.074219 208.617188 C 275.816406 208.792969 275.542969 208.9375 275.257812 209.058594 C 274.96875 209.175781 274.671875 209.265625 274.363281 209.324219 C 274.058594 209.382812 273.75 209.410156 273.441406 209.40625 Z M 273.441406 209.40625 "/></g><g clip-rule="nonzero" clip-path="url(#clip14)"><path style=" stroke:none;fill-rule:nonzero;fill:rgb(0%,0%,0%);fill-opacity:1;" d="M 273.441406 240.074219 L 269.570312 240.074219 C 269.257812 240.074219 268.953125 240.042969 268.648438 239.980469 C 268.34375 239.917969 268.050781 239.828125 267.761719 239.707031 C 267.476562 239.585938 267.207031 239.441406 266.949219 239.265625 C 266.691406 239.089844 266.453125 238.894531 266.238281 238.671875 C 266.019531 238.449219 265.824219 238.210938 265.65625 237.949219 C 265.484375 237.691406 265.34375 237.417969 265.226562 237.128906 C 265.109375 236.839844 265.023438 236.542969 264.964844 236.238281 C 264.910156 235.929688 264.882812 235.621094 264.886719 235.3125 L 264.886719 231.511719 C 264.886719 231.199219 264.917969 230.894531 264.976562 230.589844 C 265.039062 230.285156 265.125 229.992188 265.246094 229.707031 C 265.363281 229.417969 265.503906 229.148438 265.675781 228.890625 C 265.847656 228.632812 266.039062 228.394531 266.257812 228.171875 C 266.472656 227.953125 266.710938 227.753906 266.964844 227.582031 C 267.222656 227.40625 267.492188 227.257812 267.773438 227.136719 C 268.058594 227.015625 268.351562 226.925781 268.652344 226.859375 C 268.957031 226.796875 269.261719 226.761719 269.570312 226.757812 L 273.441406 226.757812 C 273.75 226.757812 274.058594 226.789062 274.359375 226.851562 C 274.664062 226.910156 274.960938 227.003906 275.246094 227.121094 C 275.53125 227.242188 275.804688 227.390625 276.0625 227.5625 C 276.320312 227.738281 276.558594 227.933594 276.777344 228.15625 C 276.992188 228.375 277.1875 228.617188 277.359375 228.875 C 277.53125 229.132812 277.675781 229.40625 277.792969 229.695312 C 277.910156 229.984375 277.996094 230.28125 278.054688 230.585938 C 278.117188 230.890625 278.144531 231.199219 278.140625 231.511719 L 278.140625 235.339844 C 278.144531 235.652344 278.117188 235.960938 278.0625 236.265625 C 278.003906 236.570312 277.917969 236.867188 277.800781 237.15625 C 277.683594 237.445312 277.539062 237.71875 277.367188 237.980469 C 277.195312 238.238281 277.003906 238.476562 276.78125 238.699219 C 276.5625 238.917969 276.324219 239.117188 276.066406 239.289062 C 275.808594 239.460938 275.535156 239.605469 275.25 239.722656 C 274.960938 239.84375 274.667969 239.929688 274.363281 239.988281 C 274.058594 240.046875 273.75 240.078125 273.441406 240.074219 Z M 273.441406 240.074219 "/></g><g clip-rule="nonzero" clip-path="url(#clip15)"><path style=" stroke:none;fill-rule:nonzero;fill:rgb(0%,0%,0%);fill-opacity:1;" d="M 273.441406 270.734375 L 269.570312 270.734375 C 269.257812 270.730469 268.953125 270.699219 268.648438 270.640625 C 268.34375 270.578125 268.050781 270.488281 267.765625 270.367188 C 267.480469 270.246094 267.207031 270.101562 266.953125 269.925781 C 266.695312 269.753906 266.457031 269.554688 266.242188 269.335938 C 266.023438 269.113281 265.828125 268.875 265.660156 268.613281 C 265.488281 268.355469 265.34375 268.082031 265.230469 267.792969 C 265.113281 267.503906 265.027344 267.207031 264.96875 266.902344 C 264.910156 266.597656 264.882812 266.289062 264.886719 265.980469 L 264.886719 262.179688 C 264.886719 261.867188 264.917969 261.5625 264.976562 261.257812 C 265.039062 260.957031 265.125 260.660156 265.246094 260.375 C 265.363281 260.089844 265.503906 259.816406 265.675781 259.558594 C 265.847656 259.300781 266.039062 259.0625 266.257812 258.839844 C 266.472656 258.621094 266.710938 258.421875 266.964844 258.25 C 267.222656 258.074219 267.492188 257.929688 267.773438 257.804688 C 268.058594 257.683594 268.351562 257.59375 268.652344 257.527344 C 268.957031 257.464844 269.261719 257.429688 269.570312 257.425781 L 273.441406 257.425781 C 273.75 257.425781 274.058594 257.457031 274.359375 257.519531 C 274.664062 257.582031 274.960938 257.671875 275.246094 257.789062 C 275.53125 257.910156 275.804688 258.058594 276.0625 258.230469 C 276.320312 258.40625 276.558594 258.601562 276.777344 258.824219 C 276.992188 259.042969 277.1875 259.285156 277.359375 259.542969 C 277.53125 259.800781 277.675781 260.074219 277.792969 260.363281 C 277.910156 260.652344 277.996094 260.949219 278.054688 261.253906 C 278.117188 261.558594 278.144531 261.867188 278.140625 262.179688 L 278.140625 265.980469 C 278.148438 266.292969 278.121094 266.601562 278.066406 266.90625 C 278.007812 267.214844 277.921875 267.511719 277.804688 267.800781 C 277.691406 268.089844 277.546875 268.367188 277.375 268.628906 C 277.203125 268.886719 277.007812 269.128906 276.789062 269.351562 C 276.570312 269.570312 276.332031 269.769531 276.074219 269.941406 C 275.816406 270.117188 275.542969 270.261719 275.253906 270.382812 C 274.964844 270.5 274.671875 270.589844 274.363281 270.648438 C 274.058594 270.707031 273.75 270.734375 273.441406 270.734375 Z M 273.441406 270.734375 "/></g><g clip-rule="nonzero" clip-path="url(#clip16)"><path style=" stroke:none;fill-rule:nonzero;fill:rgb(0%,0%,0%);fill-opacity:1;" d="M 269.597656 288.105469 L 273.402344 288.105469 C 273.710938 288.105469 274.019531 288.132812 274.324219 288.195312 C 274.632812 288.257812 274.925781 288.347656 275.214844 288.464844 C 275.503906 288.585938 275.777344 288.730469 276.035156 288.90625 C 276.292969 289.078125 276.53125 289.273438 276.753906 289.496094 C 276.972656 289.714844 277.167969 289.957031 277.34375 290.214844 C 277.515625 290.476562 277.660156 290.75 277.78125 291.039062 C 277.898438 291.324219 277.988281 291.621094 278.050781 291.929688 C 278.113281 292.234375 278.140625 292.542969 278.140625 292.855469 L 278.140625 296.667969 C 278.140625 296.980469 278.113281 297.289062 278.050781 297.59375 C 277.988281 297.902344 277.898438 298.199219 277.78125 298.488281 C 277.660156 298.773438 277.515625 299.050781 277.34375 299.308594 C 277.171875 299.566406 276.972656 299.808594 276.753906 300.027344 C 276.53125 300.25 276.292969 300.445312 276.035156 300.621094 C 275.777344 300.792969 275.503906 300.9375 275.214844 301.058594 C 274.925781 301.179688 274.632812 301.269531 274.324219 301.328125 C 274.019531 301.390625 273.710938 301.421875 273.402344 301.421875 L 269.597656 301.421875 C 269.289062 301.421875 268.980469 301.390625 268.671875 301.328125 C 268.367188 301.269531 268.070312 301.179688 267.785156 301.058594 C 267.496094 300.9375 267.222656 300.792969 266.964844 300.621094 C 266.707031 300.445312 266.464844 300.25 266.246094 300.027344 C 266.027344 299.808594 265.828125 299.566406 265.65625 299.308594 C 265.484375 299.050781 265.335938 298.773438 265.21875 298.488281 C 265.097656 298.199219 265.007812 297.902344 264.949219 297.59375 C 264.886719 297.289062 264.859375 296.980469 264.859375 296.667969 L 264.859375 292.855469 C 264.859375 292.542969 264.886719 292.234375 264.949219 291.929688 C 265.007812 291.621094 265.097656 291.324219 265.21875 291.039062 C 265.335938 290.75 265.484375 290.476562 265.65625 290.214844 C 265.828125 289.957031 266.027344 289.714844 266.246094 289.496094 C 266.464844 289.273438 266.707031 289.078125 266.964844 288.90625 C 267.222656 288.730469 267.496094 288.585938 267.785156 288.464844 C 268.070312 288.347656 268.367188 288.257812 268.671875 288.195312 C 268.980469 288.132812 269.289062 288.105469 269.597656 288.105469 Z M 269.597656 288.105469 "/></g></g></svg>