<?xml version="1.0" encoding="UTF-8"?><svg xmlns="http://www.w3.org/2000/svg" xmlns:xlink="http://www.w3.org/1999/xlink" contentScriptType="text/ecmascript" width="375pt" zoomAndPan="magnify" contentStyleType="text/css" viewBox="0 0 375 374.999991" height="374.999991pt" preserveAspectRatio="xMidYMid meet" version="1.2"><defs><clipPath xml:id="clip1" id="clip1"><path d="M 122.511719 66.027344 L 252.261719 66.027344 L 252.261719 309.027344 L 122.511719 309.027344 Z M 122.511719 66.027344 "/></clipPath></defs><g xml:id="surface1" id="surface1"><rect x="0" width="375" y="0" height="374.999991" style="fill:rgb(100%,100%,100%);fill-opacity:1;stroke:none;"/><rect x="0" width="375" y="0" height="374.999991" style="fill:rgb(100%,100%,100%);fill-opacity:1;stroke:none;"/><rect x="0" width="375" y="0" height="374.999991" style="fill:rgb(23.919678%,81.17981%,82.749939%);fill-opacity:1;stroke:none;"/><g clip-rule="nonzero" clip-path="url(#clip1)"><path style=" stroke:none;fill-rule:nonzero;fill:rgb(0%,0%,0%);fill-opacity:1;" d="M 244.859375 280.835938 L 129.875 280.835938 L 129.875 91.101562 L 244.859375 91.101562 Z M 192.007812 305.257812 L 182.726562 305.257812 C 177.699219 305.257812 173.621094 300.679688 173.621094 295.03125 C 173.621094 289.378906 177.699219 284.800781 182.726562 284.800781 L 192.007812 284.800781 C 197.035156 284.800781 201.109375 289.378906 201.109375 295.03125 C 201.109375 300.679688 197.035156 305.257812 192.007812 305.257812 Z M 214.332031 72.625 L 220.640625 72.625 C 223.25 72.625 225.371094 75.003906 225.371094 77.9375 C 225.371094 80.875 223.25 83.257812 220.640625 83.257812 L 214.332031 83.257812 C 211.71875 83.257812 209.601562 80.875 209.601562 77.9375 C 209.601562 75.003906 211.71875 72.625 214.332031 72.625 Z M 237.402344 66.015625 L 137.332031 66.015625 C 129.144531 66.015625 122.507812 75.339844 122.507812 86.839844 L 122.507812 288.203125 C 122.507812 299.703125 129.144531 309.027344 137.332031 309.027344 L 237.402344 309.027344 C 245.589844 309.027344 252.226562 299.703125 252.226562 288.203125 L 252.226562 86.839844 C 252.226562 75.339844 245.589844 66.015625 237.402344 66.015625 "/></g><path style=" stroke:none;fill-rule:nonzero;fill:rgb(0%,0%,0%);fill-opacity:1;" d="M 198.40625 295.03125 C 198.40625 299.566406 195.132812 303.246094 191.09375 303.246094 L 183.640625 303.246094 C 179.601562 303.246094 176.328125 299.566406 176.328125 295.03125 C 176.328125 290.492188 179.601562 286.8125 183.640625 286.8125 L 191.09375 286.8125 C 195.132812 286.8125 198.40625 290.492188 198.40625 295.03125 "/></g></svg>