<?xml version="1.0" encoding="UTF-8"?><svg xmlns="http://www.w3.org/2000/svg" xmlns:xlink="http://www.w3.org/1999/xlink" contentScriptType="text/ecmascript" width="375pt" zoomAndPan="magnify" contentStyleType="text/css" viewBox="0 0 375 374.999991" height="374.999991pt" preserveAspectRatio="xMidYMid meet" version="1.2"><defs><g/><clipPath xml:id="clip1" id="clip1"><path d="M 10.582031 119.648438 L 146.332031 119.648438 L 146.332031 255.398438 L 10.582031 255.398438 Z M 10.582031 119.648438 "/></clipPath><clipPath xml:id="clip2" id="clip2"><path d="M 39.167969 148.234375 L 117.917969 148.234375 L 117.917969 226.984375 L 39.167969 226.984375 Z M 39.167969 148.234375 "/></clipPath></defs><g xml:id="surface1" id="surface1"><g clip-rule="nonzero" clip-path="url(#clip1)"><path style=" stroke:none;fill-rule:nonzero;fill:rgb(23.919678%,81.17981%,82.749939%);fill-opacity:1;" d="M 78.457031 119.648438 C 41.03125 119.648438 10.582031 150.09375 10.582031 187.523438 C 10.582031 224.949219 41.03125 255.398438 78.457031 255.398438 C 115.882812 255.398438 146.332031 224.949219 146.332031 187.523438 C 146.332031 150.09375 115.882812 119.648438 78.457031 119.648438 Z M 78.457031 119.648438 "/></g><g clip-rule="nonzero" clip-path="url(#clip2)"><path style=" stroke:none;fill-rule:nonzero;fill:rgb(100%,100%,100%);fill-opacity:1;" d="M 78.542969 148.234375 C 56.832031 148.234375 39.167969 165.898438 39.167969 187.609375 C 39.167969 209.320312 56.832031 226.984375 78.542969 226.984375 C 100.253906 226.984375 117.917969 209.320312 117.917969 187.609375 C 117.917969 165.898438 100.253906 148.234375 78.542969 148.234375 Z M 78.542969 148.234375 "/></g><g style="fill:rgb(0%,0%,0%);fill-opacity:1;"><g transform="translate(168.505246, 201.299987)"><path style="stroke:none;" d="M 11.359375 -12.9375 C 12.242188 -12.9375 13.015625 -13.046875 13.671875 -13.265625 C 14.335938 -13.492188 14.890625 -13.8125 15.328125 -14.21875 C 15.765625 -14.632812 16.085938 -15.140625 16.296875 -15.734375 C 16.515625 -16.328125 16.625 -16.992188 16.625 -17.734375 C 16.625 -18.429688 16.515625 -19.0625 16.296875 -19.625 C 16.085938 -20.1875 15.765625 -20.664062 15.328125 -21.0625 C 14.898438 -21.457031 14.351562 -21.757812 13.6875 -21.96875 C 13.03125 -22.175781 12.253906 -22.28125 11.359375 -22.28125 L 7.734375 -22.28125 L 7.734375 -12.9375 Z M 11.359375 -26.03125 C 13.097656 -26.03125 14.601562 -25.820312 15.875 -25.40625 C 17.144531 -25 18.191406 -24.429688 19.015625 -23.703125 C 19.847656 -22.972656 20.460938 -22.097656 20.859375 -21.078125 C 21.265625 -20.054688 21.46875 -18.941406 21.46875 -17.734375 C 21.46875 -16.472656 21.257812 -15.316406 20.84375 -14.265625 C 20.425781 -13.210938 19.796875 -12.304688 18.953125 -11.546875 C 18.109375 -10.796875 17.050781 -10.207031 15.78125 -9.78125 C 14.519531 -9.363281 13.046875 -9.15625 11.359375 -9.15625 L 7.734375 -9.15625 L 7.734375 0 L 2.890625 0 L 2.890625 -26.03125 Z M 11.359375 -26.03125 "/></g></g><g style="fill:rgb(0%,0%,0%);fill-opacity:1;"><g transform="translate(190.78918, 201.299987)"><path style="stroke:none;" d="M 10.375 -18.75 C 11.738281 -18.75 12.976562 -18.523438 14.09375 -18.078125 C 15.21875 -17.640625 16.179688 -17.007812 16.984375 -16.1875 C 17.785156 -15.375 18.398438 -14.378906 18.828125 -13.203125 C 19.253906 -12.035156 19.46875 -10.722656 19.46875 -9.265625 C 19.46875 -7.804688 19.253906 -6.488281 18.828125 -5.3125 C 18.398438 -4.132812 17.785156 -3.128906 16.984375 -2.296875 C 16.179688 -1.472656 15.21875 -0.835938 14.09375 -0.390625 C 12.976562 0.046875 11.738281 0.265625 10.375 0.265625 C 8.988281 0.265625 7.726562 0.046875 6.59375 -0.390625 C 5.46875 -0.835938 4.503906 -1.472656 3.703125 -2.296875 C 2.910156 -3.128906 2.296875 -4.132812 1.859375 -5.3125 C 1.421875 -6.488281 1.203125 -7.804688 1.203125 -9.265625 C 1.203125 -10.722656 1.421875 -12.035156 1.859375 -13.203125 C 2.296875 -14.378906 2.910156 -15.375 3.703125 -16.1875 C 4.503906 -17.007812 5.46875 -17.640625 6.59375 -18.078125 C 7.726562 -18.523438 8.988281 -18.75 10.375 -18.75 Z M 10.375 -3.15625 C 11.90625 -3.15625 13.039062 -3.671875 13.78125 -4.703125 C 14.519531 -5.734375 14.890625 -7.242188 14.890625 -9.234375 C 14.890625 -11.222656 14.519531 -12.738281 13.78125 -13.78125 C 13.039062 -14.832031 11.90625 -15.359375 10.375 -15.359375 C 8.8125 -15.359375 7.65625 -14.832031 6.90625 -13.78125 C 6.15625 -12.726562 5.78125 -11.210938 5.78125 -9.234375 C 5.78125 -7.253906 6.15625 -5.742188 6.90625 -4.703125 C 7.65625 -3.671875 8.8125 -3.15625 10.375 -3.15625 Z M 10.375 -3.15625 "/></g></g><g style="fill:rgb(0%,0%,0%);fill-opacity:1;"><g transform="translate(211.471113, 201.299987)"><path style="stroke:none;" d="M 6.390625 -15.265625 C 6.960938 -16.367188 7.644531 -17.234375 8.4375 -17.859375 C 9.226562 -18.492188 10.164062 -18.8125 11.25 -18.8125 C 12.101562 -18.8125 12.785156 -18.625 13.296875 -18.25 L 13.015625 -14.921875 C 12.953125 -14.703125 12.863281 -14.546875 12.75 -14.453125 C 12.632812 -14.367188 12.484375 -14.328125 12.296875 -14.328125 C 12.117188 -14.328125 11.851562 -14.359375 11.5 -14.421875 C 11.144531 -14.484375 10.796875 -14.515625 10.453125 -14.515625 C 9.960938 -14.515625 9.523438 -14.441406 9.140625 -14.296875 C 8.753906 -14.148438 8.410156 -13.941406 8.109375 -13.671875 C 7.804688 -13.398438 7.535156 -13.070312 7.296875 -12.6875 C 7.066406 -12.300781 6.847656 -11.863281 6.640625 -11.375 L 6.640625 0 L 2.203125 0 L 2.203125 -18.46875 L 4.8125 -18.46875 C 5.257812 -18.46875 5.570312 -18.382812 5.75 -18.21875 C 5.9375 -18.0625 6.0625 -17.773438 6.125 -17.359375 Z M 6.390625 -15.265625 "/></g></g><g style="fill:rgb(0%,0%,0%);fill-opacity:1;"><g transform="translate(224.899072, 201.299987)"><path style="stroke:none;" d="M 8.359375 0.28125 C 6.742188 0.28125 5.503906 -0.171875 4.640625 -1.078125 C 3.785156 -1.984375 3.359375 -3.234375 3.359375 -4.828125 L 3.359375 -15.140625 L 1.46875 -15.140625 C 1.226562 -15.140625 1.023438 -15.21875 0.859375 -15.375 C 0.691406 -15.53125 0.609375 -15.765625 0.609375 -16.078125 L 0.609375 -17.84375 L 3.578125 -18.328125 L 4.515625 -23.359375 C 4.578125 -23.597656 4.691406 -23.785156 4.859375 -23.921875 C 5.023438 -24.054688 5.242188 -24.125 5.515625 -24.125 L 7.8125 -24.125 L 7.8125 -18.3125 L 12.75 -18.3125 L 12.75 -15.140625 L 7.8125 -15.140625 L 7.8125 -5.125 C 7.8125 -4.550781 7.953125 -4.101562 8.234375 -3.78125 C 8.515625 -3.457031 8.898438 -3.296875 9.390625 -3.296875 C 9.671875 -3.296875 9.90625 -3.328125 10.09375 -3.390625 C 10.28125 -3.453125 10.441406 -3.519531 10.578125 -3.59375 C 10.710938 -3.664062 10.832031 -3.734375 10.9375 -3.796875 C 11.050781 -3.867188 11.160156 -3.90625 11.265625 -3.90625 C 11.398438 -3.90625 11.507812 -3.867188 11.59375 -3.796875 C 11.675781 -3.734375 11.765625 -3.640625 11.859375 -3.515625 L 13.1875 -1.34375 C 12.539062 -0.8125 11.796875 -0.40625 10.953125 -0.125 C 10.117188 0.144531 9.253906 0.28125 8.359375 0.28125 Z M 8.359375 0.28125 "/></g></g><g style="fill:rgb(0%,0%,0%);fill-opacity:1;"><g transform="translate(238.291027, 201.299987)"><path style="stroke:none;" d="M 3.484375 0 L 3.484375 -15.125 L 1.890625 -15.375 C 1.546875 -15.445312 1.265625 -15.566406 1.046875 -15.734375 C 0.835938 -15.910156 0.734375 -16.160156 0.734375 -16.484375 L 0.734375 -18.3125 L 3.484375 -18.3125 L 3.484375 -19.671875 C 3.484375 -20.734375 3.644531 -21.679688 3.96875 -22.515625 C 4.289062 -23.359375 4.75 -24.070312 5.34375 -24.65625 C 5.9375 -25.25 6.65625 -25.703125 7.5 -26.015625 C 8.351562 -26.328125 9.316406 -26.484375 10.390625 -26.484375 C 11.234375 -26.484375 12.023438 -26.367188 12.765625 -26.140625 L 12.671875 -23.90625 C 12.660156 -23.738281 12.613281 -23.601562 12.53125 -23.5 C 12.445312 -23.394531 12.332031 -23.316406 12.1875 -23.265625 C 12.050781 -23.210938 11.894531 -23.175781 11.71875 -23.15625 C 11.539062 -23.132812 11.347656 -23.125 11.140625 -23.125 C 10.609375 -23.125 10.132812 -23.066406 9.71875 -22.953125 C 9.3125 -22.835938 8.960938 -22.640625 8.671875 -22.359375 C 8.390625 -22.078125 8.171875 -21.707031 8.015625 -21.25 C 7.867188 -20.789062 7.796875 -20.21875 7.796875 -19.53125 L 7.796875 -18.3125 L 12.59375 -18.3125 L 12.59375 -15.140625 L 7.9375 -15.140625 L 7.9375 0 Z M 3.484375 0 "/></g></g><g style="fill:rgb(0%,0%,0%);fill-opacity:1;"><g transform="translate(251.196987, 201.299987)"><path style="stroke:none;" d="M 10.375 -18.75 C 11.738281 -18.75 12.976562 -18.523438 14.09375 -18.078125 C 15.21875 -17.640625 16.179688 -17.007812 16.984375 -16.1875 C 17.785156 -15.375 18.398438 -14.378906 18.828125 -13.203125 C 19.253906 -12.035156 19.46875 -10.722656 19.46875 -9.265625 C 19.46875 -7.804688 19.253906 -6.488281 18.828125 -5.3125 C 18.398438 -4.132812 17.785156 -3.128906 16.984375 -2.296875 C 16.179688 -1.472656 15.21875 -0.835938 14.09375 -0.390625 C 12.976562 0.046875 11.738281 0.265625 10.375 0.265625 C 8.988281 0.265625 7.726562 0.046875 6.59375 -0.390625 C 5.46875 -0.835938 4.503906 -1.472656 3.703125 -2.296875 C 2.910156 -3.128906 2.296875 -4.132812 1.859375 -5.3125 C 1.421875 -6.488281 1.203125 -7.804688 1.203125 -9.265625 C 1.203125 -10.722656 1.421875 -12.035156 1.859375 -13.203125 C 2.296875 -14.378906 2.910156 -15.375 3.703125 -16.1875 C 4.503906 -17.007812 5.46875 -17.640625 6.59375 -18.078125 C 7.726562 -18.523438 8.988281 -18.75 10.375 -18.75 Z M 10.375 -3.15625 C 11.90625 -3.15625 13.039062 -3.671875 13.78125 -4.703125 C 14.519531 -5.734375 14.890625 -7.242188 14.890625 -9.234375 C 14.890625 -11.222656 14.519531 -12.738281 13.78125 -13.78125 C 13.039062 -14.832031 11.90625 -15.359375 10.375 -15.359375 C 8.8125 -15.359375 7.65625 -14.832031 6.90625 -13.78125 C 6.15625 -12.726562 5.78125 -11.210938 5.78125 -9.234375 C 5.78125 -7.253906 6.15625 -5.742188 6.90625 -4.703125 C 7.65625 -3.671875 8.8125 -3.15625 10.375 -3.15625 Z M 10.375 -3.15625 "/></g></g><g style="fill:rgb(0%,0%,0%);fill-opacity:1;"><g transform="translate(271.878919, 201.299987)"><path style="stroke:none;" d="M 6.703125 -26.75 L 6.703125 0 L 2.25 0 L 2.25 -26.75 Z M 6.703125 -26.75 "/></g></g><g style="fill:rgb(0%,0%,0%);fill-opacity:1;"><g transform="translate(280.824891, 201.299987)"><path style="stroke:none;" d="M 6.796875 -18.46875 L 6.796875 0 L 2.34375 0 L 2.34375 -18.46875 Z M 7.421875 -23.84375 C 7.421875 -23.46875 7.34375 -23.109375 7.1875 -22.765625 C 7.03125 -22.429688 6.820312 -22.140625 6.5625 -21.890625 C 6.300781 -21.640625 5.992188 -21.4375 5.640625 -21.28125 C 5.296875 -21.132812 4.925781 -21.0625 4.53125 -21.0625 C 4.144531 -21.0625 3.78125 -21.132812 3.4375 -21.28125 C 3.101562 -21.4375 2.804688 -21.640625 2.546875 -21.890625 C 2.296875 -22.140625 2.097656 -22.429688 1.953125 -22.765625 C 1.804688 -23.109375 1.734375 -23.46875 1.734375 -23.84375 C 1.734375 -24.238281 1.804688 -24.609375 1.953125 -24.953125 C 2.097656 -25.304688 2.296875 -25.609375 2.546875 -25.859375 C 2.804688 -26.117188 3.101562 -26.320312 3.4375 -26.46875 C 3.78125 -26.613281 4.144531 -26.6875 4.53125 -26.6875 C 4.925781 -26.6875 5.296875 -26.613281 5.640625 -26.46875 C 5.992188 -26.320312 6.300781 -26.117188 6.5625 -25.859375 C 6.820312 -25.609375 7.03125 -25.304688 7.1875 -24.953125 C 7.34375 -24.609375 7.421875 -24.238281 7.421875 -23.84375 Z M 7.421875 -23.84375 "/></g></g><g style="fill:rgb(0%,0%,0%);fill-opacity:1;"><g transform="translate(289.968869, 201.299987)"><path style="stroke:none;" d="M 10.375 -18.75 C 11.738281 -18.75 12.976562 -18.523438 14.09375 -18.078125 C 15.21875 -17.640625 16.179688 -17.007812 16.984375 -16.1875 C 17.785156 -15.375 18.398438 -14.378906 18.828125 -13.203125 C 19.253906 -12.035156 19.46875 -10.722656 19.46875 -9.265625 C 19.46875 -7.804688 19.253906 -6.488281 18.828125 -5.3125 C 18.398438 -4.132812 17.785156 -3.128906 16.984375 -2.296875 C 16.179688 -1.472656 15.21875 -0.835938 14.09375 -0.390625 C 12.976562 0.046875 11.738281 0.265625 10.375 0.265625 C 8.988281 0.265625 7.726562 0.046875 6.59375 -0.390625 C 5.46875 -0.835938 4.503906 -1.472656 3.703125 -2.296875 C 2.910156 -3.128906 2.296875 -4.132812 1.859375 -5.3125 C 1.421875 -6.488281 1.203125 -7.804688 1.203125 -9.265625 C 1.203125 -10.722656 1.421875 -12.035156 1.859375 -13.203125 C 2.296875 -14.378906 2.910156 -15.375 3.703125 -16.1875 C 4.503906 -17.007812 5.46875 -17.640625 6.59375 -18.078125 C 7.726562 -18.523438 8.988281 -18.75 10.375 -18.75 Z M 10.375 -3.15625 C 11.90625 -3.15625 13.039062 -3.671875 13.78125 -4.703125 C 14.519531 -5.734375 14.890625 -7.242188 14.890625 -9.234375 C 14.890625 -11.222656 14.519531 -12.738281 13.78125 -13.78125 C 13.039062 -14.832031 11.90625 -15.359375 10.375 -15.359375 C 8.8125 -15.359375 7.65625 -14.832031 6.90625 -13.78125 C 6.15625 -12.726562 5.78125 -11.210938 5.78125 -9.234375 C 5.78125 -7.253906 6.15625 -5.742188 6.90625 -4.703125 C 7.65625 -3.671875 8.8125 -3.15625 10.375 -3.15625 Z M 10.375 -3.15625 "/></g></g></g></svg>